<?xml version="1.0" encoding="UTF-8" standalone="no"?>
<!-- Created with Inkscape (http://www.inkscape.org/) -->

<svg
   xmlns:osb="http://www.openswatchbook.org/uri/2009/osb"
   xmlns:dc="http://purl.org/dc/elements/1.1/"
   xmlns:cc="http://creativecommons.org/ns#"
   xmlns:rdf="http://www.w3.org/1999/02/22-rdf-syntax-ns#"
   xmlns:svg="http://www.w3.org/2000/svg"
   xmlns="http://www.w3.org/2000/svg"
   xmlns:xlink="http://www.w3.org/1999/xlink"
   xmlns:sodipodi="http://sodipodi.sourceforge.net/DTD/sodipodi-0.dtd"
   xmlns:inkscape="http://www.inkscape.org/namespaces/inkscape"
   width="100mm"
   height="100mm"
   viewBox="0 0 354.33071 354.33071"
   id="svg2"
   version="1.1"
   inkscape:version="0.91 r13725"
   sodipodi:docname="sabea.svg"
   inkscape:export-filename="C:\Users\Joshua\sabea.png"
   inkscape:export-xdpi="304.79999"
   inkscape:export-ydpi="304.79999">
  <defs
     id="defs4">
    <inkscape:path-effect
       effect="bend_path"
       id="path-effect7643"
       is_visible="true"
       bendpath="m 101.26284,304.86941 c 51.4348,17.03618 118.80376,27.07447 186.73869,-23.11182"
       prop_scale="1"
       scale_y_rel="false"
       vertical="false"
       bendpath-nodetypes="cc" />
    <inkscape:path-effect
       effect="envelope"
       id="path-effect7641"
       is_visible="true"
       yy="true"
       xx="true"
       bendpath1="m 66.352154,266.36628 c 101.345026,25.7375 146.334656,22.20477 213.834276,1.71365"
       bendpath2="m 289.67872,283.55972 0,23.92017"
       bendpath3="M 77.211276,302.00696 C 150.53353,308.36473 218.00042,315.12 281.28864,299.27049"
       bendpath4="m 78.329953,283.55972 0,23.92017"
       bendpath1-nodetypes="cc"
       bendpath3-nodetypes="cc" />
    <inkscape:path-effect
       effect="construct_grid"
       id="path-effect7618"
       is_visible="true"
       nr_x="5"
       nr_y="5" />
    <inkscape:path-effect
       effect="bend_path"
       id="path-effect7616"
       is_visible="true"
       bendpath="M -113.72578,139.00585 C -57.477161,121.85234 -2.8551932,91.872216 98.764385,135.44364"
       prop_scale="1"
       scale_y_rel="false"
       vertical="false"
       bendpath-nodetypes="cc" />
    <inkscape:path-effect
       effect="envelope"
       id="path-effect7612"
       is_visible="true"
       yy="true"
       xx="true"
       bendpath1="m -118.33048,116.56937 213.897025,0"
       bendpath2="m 95.566545,116.56937 0,27.48227"
       bendpath3="m -118.33048,144.05164 213.897025,0"
       bendpath4="m -118.33048,116.56937 0,27.48227" />
    <linearGradient
       inkscape:collect="always"
       id="linearGradient7579">
      <stop
         style="stop-color:#b52212;stop-opacity:1;"
         offset="0"
         id="stop7581" />
      <stop
         style="stop-color:#b52212;stop-opacity:0;"
         offset="1"
         id="stop7583" />
    </linearGradient>
    <linearGradient
       inkscape:collect="always"
       id="linearGradient7571">
      <stop
         style="stop-color:#b52212;stop-opacity:1;"
         offset="0"
         id="stop7573" />
      <stop
         style="stop-color:#b52212;stop-opacity:0;"
         offset="1"
         id="stop7575" />
    </linearGradient>
    <linearGradient
       inkscape:collect="always"
       id="linearGradient7453">
      <stop
         style="stop-color:#b52212;stop-opacity:1;"
         offset="0"
         id="stop7455" />
      <stop
         style="stop-color:#b52212;stop-opacity:0;"
         offset="1"
         id="stop7457" />
    </linearGradient>
    <linearGradient
       inkscape:collect="always"
       id="linearGradient7435">
      <stop
         style="stop-color:#f9beff;stop-opacity:1;"
         offset="0"
         id="stop7437" />
      <stop
         style="stop-color:#f9beff;stop-opacity:0;"
         offset="1"
         id="stop7439" />
    </linearGradient>
    <linearGradient
       id="linearGradient7429"
       osb:paint="solid">
      <stop
         style="stop-color:#f9beff;stop-opacity:1;"
         offset="0"
         id="stop7431" />
    </linearGradient>
    <linearGradient
       inkscape:collect="always"
       id="linearGradient7409">
      <stop
         style="stop-color:#272727;stop-opacity:1;"
         offset="0"
         id="stop7411" />
      <stop
         style="stop-color:#272727;stop-opacity:0;"
         offset="1"
         id="stop7413" />
    </linearGradient>
    <linearGradient
       inkscape:collect="always"
       id="linearGradient7401">
      <stop
         style="stop-color:#000000;stop-opacity:1;"
         offset="0"
         id="stop7403" />
      <stop
         style="stop-color:#000000;stop-opacity:0;"
         offset="1"
         id="stop7405" />
    </linearGradient>
    <linearGradient
       inkscape:collect="always"
       id="linearGradient5628">
      <stop
         style="stop-color:#ff0000;stop-opacity:1;"
         offset="0"
         id="stop5630" />
      <stop
         style="stop-color:#ff0000;stop-opacity:0;"
         offset="1"
         id="stop5632" />
    </linearGradient>
    <linearGradient
       id="linearGradient4178"
       osb:paint="solid">
      <stop
         style="stop-color:#000000;stop-opacity:1;"
         offset="0"
         id="stop4180" />
    </linearGradient>
    <radialGradient
       inkscape:collect="always"
       xlink:href="#linearGradient5628"
       id="radialGradient5680"
       gradientUnits="userSpaceOnUse"
       gradientTransform="matrix(0.86254647,6.7301668,-5.5399972,0.71001273,4727.6317,-1262.0818)"
       cx="223.09358"
       cy="849.21198"
       fx="223.09358"
       fy="849.21198"
       r="19.989538" />
    <radialGradient
       inkscape:collect="always"
       xlink:href="#linearGradient5628"
       id="radialGradient5772"
       gradientUnits="userSpaceOnUse"
       gradientTransform="matrix(0.86254647,6.7301668,-5.5399972,0.71001273,4727.6317,-1262.0818)"
       cx="223.09358"
       cy="849.21198"
       fx="223.09358"
       fy="849.21198"
       r="19.989538" />
    <linearGradient
       inkscape:collect="always"
       xlink:href="#linearGradient7401"
       id="linearGradient7407"
       x1="186.04144"
       y1="183.62534"
       x2="187.18477"
       y2="157.82858"
       gradientUnits="userSpaceOnUse" />
    <linearGradient
       inkscape:collect="always"
       xlink:href="#linearGradient7409"
       id="linearGradient7415"
       x1="170.67608"
       y1="203.1017"
       x2="231.66992"
       y2="203.1017"
       gradientUnits="userSpaceOnUse" />
    <linearGradient
       inkscape:collect="always"
       xlink:href="#linearGradient7435"
       id="linearGradient7441"
       x1="169.50245"
       y1="174.17398"
       x2="209.8646"
       y2="174.17398"
       gradientUnits="userSpaceOnUse" />
    <linearGradient
       inkscape:collect="always"
       xlink:href="#linearGradient7571"
       id="linearGradient7577"
       x1="152.06273"
       y1="134.13403"
       x2="180.59999"
       y2="146.25586"
       gradientUnits="userSpaceOnUse"
       gradientTransform="translate(-10,2)" />
    <linearGradient
       inkscape:collect="always"
       xlink:href="#linearGradient7579"
       id="linearGradient7585"
       x1="196.58438"
       y1="183.61491"
       x2="196.38414"
       y2="208.61491"
       gradientUnits="userSpaceOnUse"
       gradientTransform="translate(-10,2)" />
    <linearGradient
       inkscape:collect="always"
       xlink:href="#linearGradient7453"
       id="linearGradient7661"
       gradientUnits="userSpaceOnUse"
       x1="216.64119"
       y1="851.92944"
       x2="272.98596"
       y2="871.10181" />
  </defs>
  <sodipodi:namedview
     id="base"
     pagecolor="#ffffff"
     bordercolor="#666666"
     borderopacity="1.0"
     inkscape:pageopacity="0.0"
     inkscape:pageshadow="2"
     inkscape:zoom="1.4"
     inkscape:cx="151.97503"
     inkscape:cy="183.71591"
     inkscape:document-units="mm"
     inkscape:current-layer="layer7"
     showgrid="false"
     units="mm"
     showguides="false"
     inkscape:guide-bbox="true"
     inkscape:window-width="1366"
     inkscape:window-height="705"
     inkscape:window-x="-8"
     inkscape:window-y="-8"
     inkscape:window-maximized="1">
    <sodipodi:guide
       position="177.14285,267.14285"
       orientation="1,0"
       id="guide3340" />
    <sodipodi:guide
       position="212.14285,176.42857"
       orientation="0,1"
       id="guide3342" />
  </sodipodi:namedview>
  <metadata
     id="metadata7">
    <rdf:RDF>
      <cc:Work
         rdf:about="">
        <dc:format>image/svg+xml</dc:format>
        <dc:type
           rdf:resource="http://purl.org/dc/dcmitype/StillImage" />
        <dc:title></dc:title>
      </cc:Work>
    </rdf:RDF>
  </metadata>
  <g
     inkscape:label="circle"
     inkscape:groupmode="layer"
     id="layer1"
     transform="translate(0,-698.03147)"
     style="display:inline;opacity:1">
    <path
       style="fill:#fcfcfc;fill-opacity:1;fill-rule:evenodd;stroke:#1a1a1a;stroke-width:3.31967139;stroke-linecap:butt;stroke-linejoin:miter;stroke-miterlimit:4;stroke-dasharray:none;stroke-opacity:1"
       d="M 291.5455,869.13027 C 294.43449,944.07063 211.30875,1004.3034 139.54361,979.52965 66.049803,960.08745 32.061474,864.10777 77.380988,803.87978 117.95905,740.447 221.09137,736.84982 266.1235,797.29657 c 16.37598,20.21846 25.48733,45.97355 25.422,71.8337 z"
       id="path3344"
       inkscape:connector-curvature="0" />
  </g>
  <g
     inkscape:groupmode="layer"
     id="layer2"
     inkscape:label="100"
     style="display:inline">
    <path
       style="fill:url(#linearGradient7577);fill-opacity:1;fill-rule:evenodd;stroke:#272727;stroke-width:3.13485742;stroke-linecap:butt;stroke-linejoin:round;stroke-miterlimit:4;stroke-dasharray:none;stroke-opacity:1"
       d="m 127.80417,112.91199 -0.33646,13.92835 7.40213,-5.45022 0,31.49016 18.50533,0 2e-5,-52.68549 z"
       id="path4164"
       inkscape:connector-curvature="0"
       sodipodi:nodetypes="ccccccc" />
    <g
       id="g5664"
       transform="matrix(1.4196466,0,0,1.3698875,-134.1229,-1033.5825)">
      <ellipse
         cx="224.17856"
         cy="847.50507"
         rx="18.770641"
         ry="19.663498"
         id="path5636"
         style="fill:url(#linearGradient7661);fill-opacity:1;stroke:#272727;stroke-width:2.43779516;stroke-linecap:butt;stroke-linejoin:round;stroke-miterlimit:4;stroke-dasharray:none;stroke-opacity:1" />
      <ellipse
         transform="matrix(0.55423409,0.83236084,-0.61138324,0.79133465,0,0)"
         ry="9.0405693"
         rx="5.7888904"
         cy="298.94907"
         cx="734.70935"
         id="path5638"
         style="fill:#ffffff;fill-opacity:1;stroke:#272727;stroke-width:2.05109048;stroke-linecap:butt;stroke-linejoin:round;stroke-miterlimit:4;stroke-dasharray:none;stroke-opacity:1" />
    </g>
    <use
       x="0"
       y="0"
       xlink:href="#g5664"
       id="use5668"
       transform="translate(57.670949,0.4180444)"
       width="100%"
       height="100%" />
  </g>
  <g
     inkscape:groupmode="layer"
     id="layer4"
     inkscape:label="and"
     style="display:inline">
    <text
       xml:space="preserve"
       style="font-style:normal;font-weight:normal;font-size:31.98488045px;line-height:125%;font-family:sans-serif;letter-spacing:0px;word-spacing:0px;fill:#000000;fill-opacity:1;stroke:#969696;stroke-width:0.35433072;stroke-linecap:butt;stroke-linejoin:miter;stroke-miterlimit:4;stroke-dasharray:none;stroke-opacity:1"
       x="160.77394"
       y="185.50983"
       id="text5911"
       sodipodi:linespacing="125%"
       transform="scale(1.0804222,0.9255641)"><tspan
         sodipodi:role="line"
         id="tspan5913"
         x="160.77394"
         y="185.50983"
         style="font-style:normal;font-variant:normal;font-weight:100;font-stretch:normal;font-size:25px;font-family:'AR BLANCA';-inkscape-font-specification:'AR BLANCA Thin';fill:#000000;fill-opacity:1;stroke:#969696;stroke-width:0.35433072;stroke-miterlimit:4;stroke-dasharray:none;stroke-opacity:1">and </tspan></text>
  </g>
  <g
     inkscape:groupmode="layer"
     id="layer5"
     inkscape:label="BEYOND"
     style="display:inline">
    <text
       xml:space="preserve"
       style="font-style:normal;font-weight:normal;font-size:40px;line-height:125%;font-family:sans-serif;letter-spacing:0px;word-spacing:0px;display:inline;fill:url(#linearGradient7585);fill-opacity:1;stroke:#272727;stroke-width:1.0629921;stroke-linecap:butt;stroke-linejoin:miter;stroke-miterlimit:4;stroke-dasharray:none;stroke-opacity:1"
       x="125.65796"
       y="194.96077"
       id="text5915"
       sodipodi:linespacing="125%"><tspan
         sodipodi:role="line"
         id="tspan5917"
         x="125.65796"
         y="194.96077"
         style="font-style:normal;font-variant:normal;font-weight:600;font-stretch:normal;font-size:27.5px;font-family:'Bookman Old Style';-inkscape-font-specification:'Bookman Old Style Semi-Bold';letter-spacing:4.38999987px;baseline-shift:baseline;fill:url(#linearGradient7585);fill-opacity:1;stroke:#272727;stroke-width:1.0629921;stroke-miterlimit:4;stroke-dasharray:none;stroke-opacity:1"
         dx="0.039999999"
         dy="0.02">BEYOND</tspan></text>
    <text
       xml:space="preserve"
       style="font-style:normal;font-weight:normal;font-size:40px;line-height:125%;font-family:sans-serif;letter-spacing:0px;word-spacing:0px;fill:#000000;fill-opacity:1;stroke:none;stroke-width:1px;stroke-linecap:butt;stroke-linejoin:miter;stroke-opacity:1"
       x="74.285713"
       y="200.97359"
       id="text7587"
       sodipodi:linespacing="125%"><tspan
         sodipodi:role="line"
         id="tspan7589"
         x="74.285713"
         y="200.97359">r</tspan></text>
  </g>
  <g
     inkscape:groupmode="layer"
     id="layer6"
     inkscape:label="SABEA">
    <text
       xml:space="preserve"
       style="font-style:normal;font-weight:normal;font-size:40px;line-height:125%;font-family:sans-serif;letter-spacing:0px;word-spacing:0px;fill:#000000;fill-opacity:1;stroke:#969696;stroke-width:0.35433072;stroke-linecap:butt;stroke-linejoin:miter;stroke-miterlimit:4;stroke-dasharray:none;stroke-opacity:1"
       x="159.70563"
       y="210.86874"
       id="text5939"
       sodipodi:linespacing="125%"><tspan
         sodipodi:role="line"
         id="tspan5941"
         x="159.70563"
         y="210.86874"
         style="font-style:normal;font-variant:normal;font-weight:bold;font-stretch:normal;font-size:17.5px;font-family:'Sitka Small';-inkscape-font-specification:'Sitka Small Bold';stroke:#969696;stroke-width:0.35433072;stroke-miterlimit:4;stroke-dasharray:none;stroke-opacity:1">SABEA</tspan></text>
  </g>
  <g
     inkscape:groupmode="layer"
     id="layer3"
     inkscape:label="arrows1"
     style="display:inline;opacity:1">
    <path
       style="opacity:1;fill:#b52212;fill-opacity:1;fill-rule:evenodd;stroke:#1a1a1a;stroke-width:2.83464575;stroke-linecap:butt;stroke-linejoin:miter;stroke-miterlimit:4;stroke-dasharray:none;stroke-opacity:1"
       d="m 136.21302,85.256133 c 4.03896,-25.804509 1.36992,-17.915752 5.81294,-44.687899 -20.39758,9.785721 -43.93499,15.576877 -77.904288,27.375643 l 15.787349,4.336479 C 11.807879,148.82651 43.662162,212.21025 109.95363,266.24451 63.518928,198.03018 86.75917,114.31045 124.05987,80.116472 Z"
       id="path5875-2"
       inkscape:connector-curvature="0"
       sodipodi:nodetypes="ccccccc" />
    <path
       style="opacity:1;fill:#6f0053;fill-opacity:1;fill-rule:evenodd;stroke:#1a1a1a;stroke-width:2.83464575;stroke-linecap:butt;stroke-linejoin:miter;stroke-miterlimit:4;stroke-dasharray:none;stroke-opacity:1"
       d="M 156.44652,97.993881 C 149.3738,79.765516 154.28091,65.430917 163.77469,40.679076 145.29811,47.26313 122.96748,57.272263 86.880553,64.014108 l 13.261967,4.841555 C 0.445875,155.94799 84.12079,274.46716 174.6041,310.77232 119.4168,257.70402 56.721146,159.54159 137.72737,88.81361 Z"
       id="path5875"
       inkscape:connector-curvature="0"
       sodipodi:nodetypes="ccccccc" />
  </g>
  <g
     style="display:inline;opacity:1"
     inkscape:label="arrows2"
     id="g5892"
     inkscape:groupmode="layer">
    <path
       sodipodi:nodetypes="ccccccc"
       inkscape:connector-curvature="0"
       id="path5894"
       d="m 229.6434,211.95334 c 31.21163,-3.9989 41.73932,-11.17482 64.72924,-19.34506 -8.40934,21.00248 -10.05569,24.74259 -19.57222,59.42052 l -5.37547,-15.46447 c -71.85397,73.03484 -145.07059,48.31786 -203.388509,-14.23837 71.147819,41.83426 127.518909,27.75734 174.874229,1.79485 z"
       style="opacity:1;fill:#b52212;fill-opacity:1;fill-rule:evenodd;stroke:#1a1a1a;stroke-width:2.83464575;stroke-linecap:butt;stroke-linejoin:miter;stroke-miterlimit:4;stroke-dasharray:none;stroke-opacity:1" />
    <path
       sodipodi:nodetypes="ccccccc"
       inkscape:connector-curvature="0"
       id="path5896"
       d="m 239.40387,216.40109 c 28.23384,-0.71635 59.62456,-18.79952 77.82407,-31.86498 -12.55471,26.2173 -14.59028,37.66591 -14.00609,74.43177 L 288.60721,247.63715 C 198.17681,333.97843 82.645539,286.28028 38.793132,200.56387 96.24999,248.14843 185.31227,279.8198 254.55599,225.62306 Z"
       style="opacity:1;fill:#760058;fill-opacity:1;fill-rule:evenodd;stroke:#1a1a1a;stroke-width:2.83464575;stroke-linecap:butt;stroke-linejoin:miter;stroke-miterlimit:4;stroke-dasharray:none;stroke-opacity:1" />
  </g>
  <g
     inkscape:groupmode="layer"
     id="layer7"
     inkscape:label="reachup">
    <g
       transform="matrix(0.20367213,-0.67268689,1.0538592,0.12388446,-37.560901,122.2193)"
       style="font-style:normal;font-weight:normal;font-size:39.00463486px;line-height:125%;font-family:sans-serif;letter-spacing:0px;word-spacing:0px;fill:#f03000;fill-opacity:1;stroke:#1a1a1a;stroke-width:1.03654039;stroke-linecap:butt;stroke-linejoin:miter;stroke-miterlimit:4;stroke-dasharray:none;stroke-opacity:1"
       id="text7592"
       inkscape:path-effect="#path-effect7616">
      <path
         d="m -116.49095,129.93849 c 4.80272,-1.86343 9.5996,-3.82854 14.4244,-5.83689 0.93114,-0.38758 1.9841,-0.7326 3.159445,-1.0352 1.186804,-0.30733 2.3505,-0.37884 3.490665,-0.21333 1.151534,0.16081 2.166657,0.54885 3.044219,1.16523 0.87761,0.6164 1.554652,1.44259 2.031283,2.47917 0.773151,1.68143 0.755223,3.31611 -0.05174,4.90273 -0.800517,1.57127 -2.003696,2.8835 -3.612159,3.93426 2.435662,1.08741 4.873044,2.17201 7.304169,3.25995 0.104166,0.051 0.208319,0.10194 0.312461,0.15292 0.481127,0.22729 0.892498,0.37664 1.234248,0.44796 0.336899,0.0608 0.651798,0.074 0.944744,0.0397 0.292958,-0.0343 0.670115,-0.14793 1.131436,-0.34053 0.337512,-0.14097 0.674891,-0.28179 1.012149,-0.42243 0.46651,1.02173 0.932748,2.04356 1.398695,3.0655 -2.505756,1.04496 -5.021683,2.10143 -7.552522,3.16121 -3.998827,-2.11556 -8.013157,-4.22802 -12.005931,-6.36355 -0.65963,0.2718 -1.31986,0.54296 -1.98078,0.81332 0.66499,1.47497 1.33097,2.94957 1.99788,4.42381 0.345431,0.76367 0.612209,1.23266 0.800135,1.40713 0.183091,0.16386 0.396264,0.2588 0.639425,0.28478 0.249751,0.0107 0.678874,-0.1088 1.285784,-0.35889 0.366449,-0.151 0.732562,-0.30214 1.098353,-0.45339 0.466511,1.02193 0.933336,2.04373 1.400454,3.06542 -3.907354,1.61605 -7.859201,3.22286 -11.872371,4.7913 -0.45023,-1.02941 -0.89969,-2.0591 -1.34836,-3.0891 0.36253,-0.14154 0.72461,-0.28343 1.08627,-0.42564 0.57155,-0.22479 0.94986,-0.43722 1.13546,-0.63579 0.19262,-0.21395 0.29743,-0.45588 0.3147,-0.72561 0.002,-0.15096 -0.14593,-0.56154 -0.44213,-1.23257 -1.8453,-4.17994 -3.67928,-8.36419 -5.50053,-12.55324 -0.21347,-0.49091 -0.40926,-0.82 -0.58732,-0.98716 -0.17148,-0.18231 -0.36671,-0.26767 -0.58576,-0.25622 -0.32096,-0.0109 -0.65569,0.0522 -1.00461,0.18907 -0.15528,0.0672 -0.31058,0.13425 -0.46591,0.20123 -0.29272,0.11445 -0.5855,0.22856 -0.87834,0.34232 -0.45358,-1.06544 -0.90621,-2.13124 -1.35786,-3.19741 0,0 -5e-5,-8e-5 -5e-5,-8e-5 z m 10.24289,0.21216 c 0.85801,1.91742 1.7179,3.83413 2.57953,5.75019 1.17414,-0.48016 2.34687,-0.96319 3.51866,-1.44827 1.380805,-0.57159 2.357683,-1.11761 2.929048,-1.63293 0.578248,-0.531 0.934769,-1.0898 1.069835,-1.67577 0.146398,-0.59076 0.07377,-1.20348 -0.217503,-1.83824 -0.266982,-0.5819 -0.658771,-1.01065 -1.175037,-1.28662 -0.509831,-0.29127 -1.109312,-0.41267 -1.798332,-0.36479 -0.678351,0.0432 -1.685801,0.34386 -3.025341,0.89882 -1.294,0.53609 -2.5874,1.06901 -3.88086,1.59763 z"
         style="font-style:normal;font-variant:normal;font-weight:600;font-stretch:normal;font-family:'Bookman Old Style';-inkscape-font-specification:'Bookman Old Style Semi-Bold';fill:#f03000;fill-opacity:1;stroke:#1a1a1a;stroke-width:0.98486811;stroke-miterlimit:4;stroke-dasharray:none;stroke-opacity:1"
         id="path7598"
         inkscape:connector-curvature="0"
         inkscape:original-d="m -128.28516,121.82662 16.09643,-1.14867 q 1.55348,-0.11085 3.4163,0.0186 1.88156,0.12818 3.45736,0.90798 1.59453,0.77849 2.56669,2.07377 0.97218,1.29527 1.15891,2.9965 0.30297,2.76014 -1.6421,4.63101 -1.92825,1.85214 -4.77219,2.57997 l 6.00816,5.41472 0.25318,0.24438 q 0.58886,0.55281 1.05174,0.8172 0.46097,0.24704 0.904792,0.33783 0.443824,0.0907 1.211213,0.0361 l 1.123013,-0.0801 0.367758,3.35038 -8.366406,0.59704 -9.5303,-9.83468 -2.17117,0.15491 0.5297,4.82595 q 0.13715,1.24989 0.32503,1.58639 0.18595,0.31914 0.52319,0.47002 0.35406,0.1322 1.34604,0.0614 l 1.19788,-0.0855 0.36778,3.35038 -12.76484,0.91091 -0.36779,-3.35038 1.16043,-0.0828 q 0.91714,-0.0655 1.27242,-0.26576 0.37209,-0.21901 0.51923,-0.59692 0.0707,-0.21499 -0.0493,-1.30864 l -1.49582,-13.62719 q -0.0877,-0.79854 -0.27358,-1.11768 -0.16913,-0.33784 -0.49875,-0.41929 -0.47016,-0.1589 -1.05037,-0.1175 l -0.52218,0.0548 -0.97327,0.0695 -0.37915,-3.45454 z m 10.05678,3.2888 0.68788,6.26677 3.87436,-0.27653 q 2.28346,-0.16294 3.36454,-0.62499 1.09791,-0.48076 1.57936,-1.24992 0.5002,-0.7705 0.38587,-1.81206 -0.10476,-0.95478 -0.7219,-1.59307 -0.6003,-0.65698 -1.62848,-0.91602 -1.00948,-0.26038 -3.23678,-0.10141 l -4.30485,0.30725 z" />
      <path
         d="m -82.972545,115.49453 c 2.653527,-0.96151 5.32675,-1.91347 8.023524,-2.84692 5.077879,-1.764 10.225634,-3.44221 15.446924,-4.99596 1.663414,2.2117 3.305442,4.43404 4.923993,6.66727 -1.137967,0.72545 -2.26802,1.45742 -3.390704,2.19538 -0.898124,-1.05652 -1.853782,-1.83566 -2.86535,-2.33654 -0.997879,-0.50491 -2.033206,-0.71816 -3.100036,-0.63885 -1.055915,0.0636 -2.24949,0.31125 -3.574219,0.74651 -1.425113,0.46824 -2.84538,0.94448 -4.260883,1.42785 0.527511,1.98252 1.056053,3.96471 1.585615,5.94656 0.458346,-0.15681 0.917078,-0.31285 1.376198,-0.4681 1.036908,-0.3505 1.716436,-0.64401 2.03992,-0.88796 0.333142,-0.25926 0.544108,-0.55176 0.632499,-0.87816 0.08543,-0.33764 0.02241,-0.92399 -0.189469,-1.75826 -0.07693,-0.3029 -0.153828,-0.60581 -0.230702,-0.90873 1.183082,-0.38808 2.369191,-0.77055 3.558375,-1.14692 0.821226,3.38082 1.646054,6.7607 2.47444,10.13963 -1.153525,0.36766 -2.305391,0.74137 -3.455646,1.12063 -0.0877,-0.34273 -0.175357,-0.68547 -0.262985,-1.02822 -0.178204,-0.69703 -0.405287,-1.17321 -0.682553,-1.42872 -0.264136,-0.2597 -0.573944,-0.39269 -0.929132,-0.3986 -0.354244,-0.006 -1.094112,0.17759 -2.211726,0.55628 -0.409603,0.13883 -0.81895,0.2783 -1.228044,0.41838 0.488006,1.82205 0.976871,3.64382 1.466589,5.46531 0.156086,0.58054 0.283084,0.92258 0.38058,1.02587 0.09756,0.10334 0.244888,0.15854 0.441975,0.16578 0.210163,0.003 0.620915,-0.10026 1.234388,-0.30785 0.747406,-0.25282 1.495276,-0.50341 2.243625,-0.75165 1.675812,-0.55579 3.037403,-1.22418 4.090271,-2.01619 1.049755,-0.80313 1.914539,-1.81846 2.599033,-3.05011 0.694577,-1.24678 1.144548,-2.60512 1.345304,-4.07666 1.283688,0.004 2.565232,0.0154 3.844213,0.0359 -0.56641,3.3295 -1.088617,6.65847 -1.571324,9.98622 -4.820144,1.45272 -9.627582,3.0295 -14.425968,4.69174 -2.826208,0.98237 -5.657048,1.99801 -8.497722,3.03482 -0.316207,-1.0926 -0.632256,-2.18525 -0.948145,-3.27795 0.223538,-0.0815 0.447045,-0.16286 0.670523,-0.24411 0.893986,-0.32506 1.477271,-0.59789 1.75148,-0.82183 0.274018,-0.2238 0.434642,-0.50023 0.481894,-0.82958 0.01557,-0.19297 -0.08926,-0.68643 -0.314405,-1.48015 -1.22228,-4.30895 -2.441331,-8.61886 -3.657008,-12.92979 -0.198367,-0.70343 -0.386769,-1.14171 -0.565748,-1.31511 -0.165787,-0.17803 -0.381279,-0.27584 -0.646378,-0.2933 -0.268165,-0.0288 -0.750383,0.0815 -1.444446,0.33186 -0.405976,0.14648 -0.811565,0.29324 -1.216781,0.44025 -0.314146,-1.09322 -0.628119,-2.18649 -0.941916,-3.27982 0,0 -7.3e-5,-1.7e-4 -7.3e-5,-1.7e-4 z"
         style="font-style:normal;font-variant:normal;font-weight:600;font-stretch:normal;font-family:'Bookman Old Style';-inkscape-font-specification:'Bookman Old Style Semi-Bold';fill:#f03000;fill-opacity:1;stroke:#1a1a1a;stroke-width:1.04845607;stroke-miterlimit:4;stroke-dasharray:none;stroke-opacity:1"
         id="path7600"
         inkscape:connector-curvature="0"
         inkscape:original-d="m -90.991254,118.55384 24.475454,-0.78315 3.060558,7.68533 -3.847564,1.2703 q -0.898,-1.87738 -2.159363,-3.00185 -1.240333,-1.12517 -2.803896,-1.44577 -1.541894,-0.33894 -3.62357,-0.27232 l -4.478756,0.14333 -0.223114,6.14903 1.471894,-0.0472 q 1.661134,-0.0531 2.235916,-0.26569 0.596451,-0.23087 0.864161,-0.66302 0.268353,-0.44981 0.315155,-1.73969 l 0.03398,-0.9365 3.742808,-0.11968 -0.378266,10.42508 -3.74281,0.11968 0.03847,-1.06018 q 0.03911,-1.07784 -0.258344,-1.5625 -0.276428,-0.48534 -0.795691,-0.64522 -0.519264,-0.15986 -2.327589,-0.102 l -1.324704,0.0425 -0.205155,5.65428 q -0.03269,0.90116 0.06539,1.09216 0.09809,0.191 0.388615,0.2876 0.311557,0.096 1.320856,0.0636 l 2.460161,-0.0787 q 2.754539,-0.088 4.670695,-0.80247 1.916794,-0.732 3.441899,-2.24567 1.546774,-1.53202 2.419532,-3.58959 l 3.807553,0.99007 -4.180051,9.27598 -25.358589,0.81141 0.123741,-3.41023 0.735945,-0.0235 q 1.471891,-0.0471 1.982951,-0.23993 0.511059,-0.19285 0.737357,-0.64132 0.114753,-0.2684 0.159635,-1.50528 l 0.487259,-13.42892 q 0.03975,-1.09551 -0.137312,-1.42518 -0.156033,-0.33034 -0.528751,-0.47726 -0.372075,-0.16459 -1.486507,-0.12892 l -1.303676,0.0418 0.123741,-3.41023 z" />
      <path
         d="m -43.24549,103.09023 c 2.020042,-0.40731 4.049407,-0.79149 6.08809,-1.15053 3.914525,6.24875 7.609474,12.58399 11.046921,19.01043 0.555542,1.02561 0.999115,1.64468 1.34002,1.85607 0.288257,0.17148 0.736994,0.2321 1.347945,0.18583 0,0 0,0 0,0 0.136493,-0.0105 0.281083,-0.0264 0.433839,-0.0477 l 0.449389,3.6481 c -0.141508,0.0175 -0.282992,0.0352 -0.424452,0.053 -3.676476,0.45487 -7.352248,1.02787 -11.027258,1.70219 l -0.662186,-3.61333 c 0.234116,-0.0494 0.468276,-0.0984 0.70248,-0.14703 0.64722,-0.11647 1.084679,-0.28247 1.313823,-0.50257 0.226768,-0.23241 0.318266,-0.47968 0.273273,-0.74235 -0.03845,-0.22448 -0.230091,-0.66936 -0.577036,-1.32988 -0.381312,-0.75177 -0.765338,-1.50262 -1.152033,-2.25257 -2.556677,0.4513 -5.107645,0.94887 -7.652887,1.48767 -0.126286,0.94137 -0.249068,1.88268 -0.368423,2.82393 -0.06909,0.59891 -0.08379,0.98606 -0.04622,1.15938 0.04302,0.19849 0.146821,0.36426 0.311001,0.49755 0.175972,0.13077 0.424516,0.20042 0.745754,0.20971 0.21207,0.007 0.765544,-0.0861 1.671811,-0.27283 l 0.739757,3.5989 c -3.122076,0.64379 -6.243585,1.35557 -9.364493,2.12502 l -0.877381,-3.5701 c 0.609291,-0.15007 1.040791,-0.31309 1.295681,-0.49215 0.254713,-0.17893 0.443756,-0.40036 0.567188,-0.6647 0.135213,-0.2672 0.242941,-0.7298 0.324945,-1.38835 0.948228,-7.39129 2.101406,-14.78766 3.500448,-22.18375 z m 2.048669,14.17277 c 1.698595,-0.34942 3.400691,-0.68069 5.106285,-0.99239 -1.269389,-2.24468 -2.564752,-4.4799 -3.884666,-6.70584 -0.435313,2.56623 -0.841995,5.13237 -1.221619,7.69823 z"
         style="font-style:normal;font-variant:normal;font-weight:600;font-stretch:normal;font-family:'Bookman Old Style';-inkscape-font-specification:'Bookman Old Style Semi-Bold';fill:#f03000;fill-opacity:1;stroke:#1a1a1a;stroke-width:1.03654039;stroke-miterlimit:4;stroke-dasharray:none;stroke-opacity:1"
         id="path7602"
         inkscape:connector-curvature="0"
         inkscape:original-d="m -50.129487,117.02646 5.961158,0 7.979952,20.51171 q 0.647538,1.63789 1.142714,2.0188 0.514221,0.3809 1.866433,0.36186 l 0,3.67573 -12.569853,0 0,-3.67573 0.761809,-0.0191 q 1.047488,0 1.466483,-0.26663 0.418995,-0.28568 0.418995,-0.68563 0,-0.34281 -0.361859,-1.40935 l -0.780855,-2.41874 -8.094223,0 -0.990353,2.68538 q -0.304723,0.85703 -0.304723,1.12367 0,0.30472 0.209497,0.55231 0.228543,0.24759 0.723719,0.36186 0.323769,0.0762 1.790252,0.0762 l 0,3.67573 -10.284425,0 0,-3.67573 q 0.990352,0 1.447437,-0.17141 0.457086,-0.17141 0.742764,-0.51422 0.304724,-0.34281 0.666583,-1.27603 l 8.208495,-20.93071 z m -0.818945,14.30297 5.31362,0 -2.590151,-7.31337 -2.723469,7.31337 z" />
      <path
         d="m -2.7293767,98.662729 c 0.9456389,-0.0128 1.89125946,-0.01936 2.83678666,-0.01973 0.91299174,3.179787 1.78556714,6.365457 2.61785934,9.556227 -1.1878655,0.32811 -2.37001033,0.66643 -3.54622598,1.01487 -1.18847272,-2.26627 -2.34366512,-3.86362 -3.42610582,-4.7926 -1.505304,-1.27608 -3.1481757,-1.8796 -4.8883101,-1.80275 -1.2688584,0.056 -2.4430284,0.4625 -3.5066254,1.21443 -1.051199,0.75157 -1.84793,1.81915 -2.390027,3.196 -0.529655,1.37685 -0.714307,2.95647 -0.5739,4.74164 0.213906,2.71965 1.102792,5.00621 2.598333,6.87376 1.510461,1.87028 3.3308782,2.74536 5.5201507,2.65828 1.3936496,-0.0554 2.7180777,-0.51846 3.998417,-1.3932 1.5996554,-1.08326 3.00067384,-2.50619 4.20780446,-4.27972 0.94880944,0.73268 1.88717394,1.47217 2.81505464,2.21822 -1.8783552,2.58529 -3.50966351,4.40066 -4.9775858,5.4427 -2.2638175,1.60622 -4.7320474,2.45922 -7.4862305,2.59286 -2.2895345,0.11109 -4.3923645,-0.34192 -6.3633525,-1.37697 -1.957949,-1.0474 -3.621044,-2.57249 -4.988973,-4.59611 -1.367249,-2.02262 -2.227966,-4.29344 -2.521907,-6.82786 -0.292591,-2.5228 0.01388,-4.88487 0.977929,-7.08369 0.97481,-2.21108 2.463154,-4.0003 4.468888,-5.33902 2.017268,-1.338695 4.359211,-2.086403 6.97496,-2.214937 2.6556559,-0.130494 5.0083775,0.336928 7.0125944,1.369895 0.2123207,-0.384415 0.4258101,-0.768516 0.6404659,-1.152299 z"
         style="font-style:normal;font-variant:normal;font-weight:600;font-stretch:normal;font-family:'Bookman Old Style';-inkscape-font-specification:'Bookman Old Style Semi-Bold';fill:#f03000;fill-opacity:1;stroke:#1a1a1a;stroke-width:1.03654039;stroke-miterlimit:4;stroke-dasharray:none;stroke-opacity:1"
         id="path7604"
         inkscape:connector-curvature="0"
         inkscape:original-d="m -11.162941,117.02646 2.7044231,0 2.6091967,9.54166 -3.5424131,1.02844 q -1.7712067,-3.40909 -3.3329157,-4.83748 -2.171156,-1.96166 -4.704172,-1.96166 -1.847388,0 -3.466232,1.02844 -1.5998,1.02844 -2.552061,3.02819 -0.933217,1.99975 -0.933217,4.68513 0,4.09472 2.152111,7.04673 2.171157,2.95201 5.67548,2.95201 2.228292,0 4.285177,-1.27603 2.571106,-1.58075 4.4375387,-4.24708 l 2.952011,2.1902 q -2.8758301,3.92332 -5.2564837,5.46598 -3.67573,2.38065 -8.18945,2.38065 -3.751911,0 -6.799148,-1.79025 -3.028192,-1.80929 -4.837489,-5.04698 -1.809297,-3.23769 -1.809297,-7.06578 0,-3.80905 1.752162,-6.93247 1.771206,-3.14246 4.799398,-4.89462 3.047237,-1.75217 6.780103,-1.75217 3.790001,0 6.646785,1.5998 l 0.628493,-1.14271 z" />
      <path
         d="m 5.9784683,98.72041 c 4.5311387,0.121128 9.0565597,0.384074 13.5679877,0.786641 l -0.326917,3.661329 c -0.410381,-0.0366 -0.820876,-0.0721 -1.231478,-0.10635 -0.677646,-0.0566 -1.146725,-0.0226 -1.404722,0.0975 -0.257351,0.10756 -0.447382,0.28433 -0.570247,0.52982 -0.122046,0.23307 -0.212993,0.76063 -0.27378,1.58394 l -0.340779,4.61556 c 3.205964,0.23663 6.406312,0.54738 9.59761,0.93134 l 0.593751,-4.93547 c 0.07281,-0.60525 0.08343,-1.01934 0.03145,-1.24311 -0.06725,-0.31498 -0.217468,-0.54392 -0.450777,-0.68636 -0.23263,-0.14204 -0.77282,-0.26345 -1.61726,-0.356 -0.344494,-0.0378 -0.689086,-0.0747 -1.033772,-0.11079 l 0.38294,-3.655928 c 3.283345,0.343888 6.558164,0.761678 9.821251,1.252528 1.221804,0.18577 2.441125,0.38076 3.65793,0.58476 l -0.603016,3.62448 c -0.366051,-0.0613 -0.732315,-0.12167 -1.098793,-0.18124 -0.745562,-0.12119 -1.251985,-0.13577 -1.515502,-0.0486 -0.262015,0.0748 -0.462566,0.22372 -0.601692,0.44639 -0.124499,0.21232 -0.252089,0.75104 -0.383657,1.61739 l -2.161712,14.23434 c -0.133397,0.87839 -0.16655,1.45817 -0.100172,1.7376 0.08022,0.26897 0.223861,0.47703 0.430882,0.62453 0.221516,0.13722 0.743734,0.2685 1.570306,0.40241 0.235981,0.0382 0.471909,0.0769 0.707784,0.11592 l -0.603016,3.62448 c -1.081378,-0.17857 -2.163689,-0.3484 -3.246898,-0.50926 -2.872302,-0.43107 -5.753895,-0.79828 -8.641574,-1.10078 l 0.382939,-3.65592 c 0.266716,0.0279 0.533379,0.0564 0.799988,0.0854 0.746864,0.0813 1.256308,0.077 1.532239,-0.0189 0.28725,-0.0943 0.492842,-0.25521 0.616513,-0.48342 0.135377,-0.22649 0.256714,-0.78156 0.362843,-1.66374 l 0.671096,-5.57839 c -3.128294,-0.37634 -6.265238,-0.68097 -9.407399,-0.91297 l -0.413702,5.60324 c -0.06542,0.88612 -0.07013,1.44014 -0.01463,1.66044 0.09575,0.32544 0.264497,0.54819 0.50631,0.66873 0.242471,0.12087 0.742177,0.21015 1.502648,0.27482 0.279041,0.0237 0.558038,0.0481 0.836987,0.073 l -0.326917,3.66133 C 13.21712,125.6167 9.241333,125.38465 5.2644207,125.27712 l 0.098789,-3.67416 c 0.2738108,0.007 0.5476135,0.0154 0.8214057,0.0239 0.6907049,0.0216 1.1742809,-0.0233 1.4535624,-0.13977 0.2788796,-0.11627 0.4709999,-0.2862 0.5760247,-0.51059 0.1168394,-0.22364 0.1920715,-0.72286 0.2247396,-1.49642 l 0.6090921,-14.42297 c 0.038047,-0.90093 0.00441,-1.48634 -0.1019081,-1.75788 -0.092647,-0.28339 -0.2540126,-0.4933 -0.4842465,-0.62934 -0.2298862,-0.13583 -0.6857971,-0.21722 -1.3656967,-0.2393 -0.4054552,-0.0132 -0.8109587,-0.0252 -1.2165044,-0.036 z"
         style="font-style:normal;font-variant:normal;font-weight:600;font-stretch:normal;font-family:'Bookman Old Style';-inkscape-font-specification:'Bookman Old Style Semi-Bold';fill:#f03000;fill-opacity:1;stroke:#1a1a1a;stroke-width:1.03654039;stroke-miterlimit:4;stroke-dasharray:none;stroke-opacity:1"
         id="path7606"
         inkscape:connector-curvature="0"
         inkscape:original-d="m -2.8592174,117.02646 12.9698024,0 0,3.67573 -1.1998491,0 q -0.9903521,0 -1.3522115,0.2095 -0.3618594,0.19045 -0.5142213,0.57135 -0.1523618,0.36186 -0.1523618,1.5998 l 0,4.628 9.6749777,0 0,-4.97081 q 0,-0.91417 -0.114271,-1.23794 -0.152362,-0.45709 -0.514222,-0.62849 -0.361859,-0.17141 -1.599799,-0.17141 l -1.009397,0 0,-3.67573 13.007893,0 0,3.67573 -1.085578,0 q -1.104624,0 -1.466483,0.19045 -0.361859,0.17141 -0.514221,0.53327 -0.133317,0.34281 -0.133317,1.65693 l 0,14.3982 q 0,1.33317 0.171407,1.73312 0.190452,0.3809 0.552312,0.55231 0.380905,0.15236 1.714071,0.15236 l 0.761809,0 0,3.67573 -13.007893,0 0,-3.67573 0.857035,0 q 1.19985,0 1.618845,-0.19045 0.43804,-0.19046 0.590402,-0.55232 0.171407,-0.36185 0.171407,-1.69502 l 0,-5.61834 -9.6749777,0 0,5.61834 q 0,1.33317 0.1142714,1.65693 0.1904523,0.47614 0.5904022,0.6285 0.3999498,0.15236 1.6188447,0.15236 l 0.8951254,0 0,3.67573 -12.9698024,0 0,-3.67573 0.8760806,0 q 1.10462349,0 1.54266382,-0.19045 0.43804034,-0.19046 0.59040219,-0.53327 0.17140709,-0.34281 0.17140709,-1.50457 l 0,-14.43629 q 0,-1.35221 -0.17140709,-1.75216 -0.15236185,-0.419 -0.49517603,-0.60945 -0.34281417,-0.19045 -1.33316618,-0.19045 l -1.1808044,0 0,-3.67573 z" />
      <path
         d="m 52.02828,104.80603 c 4.359939,1.01499 8.684395,2.13806 12.971725,3.35912 l -1.009497,3.53352 c -0.416335,-0.11866 -0.833002,-0.23638 -1.249997,-0.35315 -0.572524,-0.16032 -1.002831,-0.20643 -1.288933,-0.14041 -0.273826,0.0695 -0.501867,0.21767 -0.684138,0.44419 -0.179057,0.21444 -0.373369,0.70704 -0.583915,1.47858 l -2.546033,9.32984 c -0.47416,1.73755 -0.662369,3.08296 -0.569423,4.02881 0.104799,0.95026 0.425641,1.74383 0.961137,2.38263 0.550829,0.63015 1.298644,1.08126 2.247839,1.3589 0.949209,0.27765 1.864675,0.28661 2.753305,0.0253 0.888418,-0.26129 1.605183,-0.71094 2.148648,-1.35363 0.558067,-0.65028 1.108494,-1.83749 1.644181,-3.55831 l 3.17058,-10.1851 c 0.132123,-0.42443 0.171266,-0.74461 0.117066,-0.9609 -0.07224,-0.28831 -0.21673,-0.5191 -0.43344,-0.69207 -0.149796,-0.12559 -0.57729,-0.29742 -1.281253,-0.51036 -0.33365,-0.10092 -0.667519,-0.20126 -1.001606,-0.301 l 1.053709,-3.5214 c 3.615576,1.07858 7.204183,2.22556 10.764822,3.43478 l -1.184821,3.48182 c -0.274448,-0.0932 -0.549053,-0.18613 -0.823815,-0.27862 -0.81778,-0.2753 -1.342812,-0.39487 -1.569899,-0.36323 -0.34153,0.0476 -0.625145,0.18835 -0.850797,0.42175 -0.157388,0.14903 -0.370455,0.63362 -0.639984,1.45441 l -3.26944,9.95631 c -0.602111,1.83358 -1.365513,3.28902 -2.277347,4.36688 -1.254167,1.46173 -2.794235,2.41829 -4.615854,2.88683 -1.808036,0.46039 -3.739123,0.38279 -5.82247,-0.21952 -1.468682,-0.42461 -2.717693,-1.0293 -3.756368,-1.82433 -1.035022,-0.80703 -1.881476,-1.77095 -2.542113,-2.89762 -0.645885,-1.13595 -1.029819,-2.25191 -1.142394,-3.35229 -0.100672,-1.09562 0.0885,-2.63318 0.57383,-4.60278 l 2.454299,-9.96012 c 0.224695,-0.91186 0.318869,-1.50883 0.282105,-1.79247 -0.0337,-0.29569 -0.148635,-0.53286 -0.345,-0.71124 -0.196127,-0.17817 -0.622188,-0.34726 -1.277522,-0.50317 -0.403391,-0.096 -0.807071,-0.19099 -1.211039,-0.28507 z"
         style="font-style:normal;font-variant:normal;font-weight:600;font-stretch:normal;font-family:'Bookman Old Style';-inkscape-font-specification:'Bookman Old Style Semi-Bold';fill:#f03000;fill-opacity:1;stroke:#1a1a1a;stroke-width:1.03654039;stroke-miterlimit:4;stroke-dasharray:none;stroke-opacity:1"
         id="path7608"
         inkscape:connector-curvature="0"
         inkscape:original-d="m 41.706627,117.02646 12.969803,0 0,3.67573 -1.276031,0 q -0.876081,0 -1.256985,0.2095 -0.36186,0.2095 -0.533267,0.60944 -0.171407,0.38091 -0.171407,1.58076 l 0,9.67498 q 0,2.70442 0.533267,4.03759 0.552311,1.33316 1.63789,2.03784 1.104623,0.68562 2.666332,0.68562 1.561709,0 2.780604,-0.7618 1.218895,-0.76181 1.733116,-1.92357 0.533267,-1.18081 0.533267,-3.88523 l 0,-10.66533 q 0,-0.66658 -0.171408,-0.95226 -0.228542,-0.38091 -0.609447,-0.53327 -0.266633,-0.11427 -1.352211,-0.11427 l -1.028443,0 0,-3.67573 10.989099,0 0,3.67573 -0.857036,0 q -1.27603,0 -1.580754,0.15236 -0.457085,0.22854 -0.666583,0.66658 -0.152362,0.28568 -0.152362,1.58076 l 0,10.47488 q 0,2.89487 -0.83799,4.85653 -1.161759,2.66633 -3.71382,4.15186 -2.533016,1.46648 -6.018294,1.46648 -2.456834,0 -4.399448,-0.74276 -1.942614,-0.76181 -3.409097,-2.15211 -1.447437,-1.40935 -2.037839,-2.97106 -0.571357,-1.56171 -0.571357,-4.60894 l 0,-10.26538 q 0,-1.40935 -0.152362,-1.8093 -0.152362,-0.419 -0.495176,-0.60945 -0.342814,-0.19045 -1.333166,-0.19045 l -1.218895,0 0,-3.67573 z" />
      <path
         d="m 81.430963,113.36781 c 4.533075,1.57728 9.020182,3.25403 13.459236,5.01746 1.686018,0.66977 3.009292,1.4087 3.967696,2.2018 0.975826,0.78681 1.711475,1.68704 2.207255,2.69559 0.5077,1.01372 0.77145,2.07893 0.7949,3.19382 0.0284,1.10335 -0.18278,2.17358 -0.62808,3.21213 -0.89575,2.08911 -2.445894,3.49376 -4.625075,4.24302 -2.170815,0.75517 -4.625334,0.56632 -7.409517,-0.54015 -1.369469,-0.54424 -2.742396,-1.07972 -4.118711,-1.606 l -1.776948,4.64675 c -0.222373,0.58151 -0.323305,0.96483 -0.302935,1.14942 0.01582,0.26457 0.105179,0.48931 0.267977,0.67442 0.174214,0.18956 0.509976,0.38001 1.007568,0.57327 0.401421,0.15591 0.802597,0.31261 1.203526,0.4701 l -1.345786,3.42354 c -3.797705,-1.49124 -7.615126,-2.91127 -11.450627,-4.25005 l 1.210507,-3.47332 c 0.268419,0.0936 0.536738,0.18768 0.804955,0.28211 0.707913,0.24921 1.193694,0.36238 1.460648,0.3362 0.266551,-0.0262 0.492013,-0.13419 0.676399,-0.32446 0.188564,-0.20211 0.414458,-0.66806 0.676812,-1.39725 l 4.949132,-13.75577 c 0.275365,-0.76536 0.407793,-1.28455 0.397052,-1.55858 -0.0064,-0.28583 -0.09934,-0.52164 -0.278856,-0.70721 -0.162987,-0.19304 -0.541879,-0.39592 -1.136588,-0.60567 -0.406663,-0.14342 -0.81368,-0.28604 -1.221048,-0.42784 z m 7.827963,7.48621 -2.69606,7.05025 c 0.696779,0.26647 1.392611,0.53525 2.087486,0.8063 1.273429,0.49672 2.254687,0.73794 2.953382,0.71614 0.702549,-0.0336 1.34398,-0.24722 1.925143,-0.64223 0.585801,-0.4067 1.033326,-0.98578 1.339821,-1.7388 0.459715,-1.12947 0.38967,-2.20149 -0.221502,-3.21522 -0.452017,-0.75717 -1.322312,-1.39418 -2.610132,-1.89976 -0.924115,-0.36279 -1.850167,-0.72173 -2.778138,-1.07668 z"
         style="font-style:normal;font-variant:normal;font-weight:600;font-stretch:normal;font-family:'Bookman Old Style';-inkscape-font-specification:'Bookman Old Style Semi-Bold';fill:#f03000;fill-opacity:1;stroke:#1a1a1a;stroke-width:1.03654039;stroke-miterlimit:4;stroke-dasharray:none;stroke-opacity:1"
         id="path7610"
         inkscape:connector-curvature="0"
         inkscape:original-d="m 71.436236,117.02646 14.036336,0 q 2.666332,0 4.418494,0.55231 1.771206,0.53327 3.028192,1.63789 1.27603,1.10463 1.961658,2.62824 0.685629,1.50458 0.685629,3.1996 0,3.4091 -2.628242,5.71357 -2.609197,2.30448 -7.218143,2.30448 l -4.532765,0 0,4.9708 q 0,0.93322 0.133316,1.18081 0.171407,0.36185 0.514222,0.53326 0.361859,0.17141 1.199849,0.17141 l 1.352212,0 0,3.67573 -12.950758,0 0,-3.67573 0.895126,0 q 1.180804,0 1.561709,-0.17141 0.380905,-0.17141 0.552312,-0.53326 0.171407,-0.38091 0.171407,-1.54267 l 0,-14.60769 q 0,-1.2189 -0.152362,-1.5998 -0.152362,-0.39995 -0.495176,-0.57136 -0.323769,-0.19045 -1.256985,-0.19045 l -1.276031,0 0,-3.67573 z m 9.751159,4.34231 0,7.54191 2.266382,0 q 2.075931,0 3.047237,-0.41899 0.971307,-0.43804 1.561709,-1.31412 0.590403,-0.89513 0.590403,-2.11402 0,-1.82834 -1.409348,-2.89488 -1.047487,-0.7999 -3.104372,-0.7999 l -2.952011,0 z" />
    </g>
    <g
       transform="matrix(0.90325434,0,0,1.0182648,15.662317,-51.968716)"
       style="font-style:normal;font-weight:normal;font-size:33.41637039px;line-height:125%;font-family:sans-serif;letter-spacing:0px;word-spacing:0px;fill:#f8e111;fill-opacity:1;stroke:#1a1a1a;stroke-width:1.0629921;stroke-linecap:butt;stroke-linejoin:miter;stroke-miterlimit:4;stroke-dasharray:none;stroke-opacity:1"
       id="text7620"
       inkscape:path-effect="#path-effect7643">
      <path
         d="m 104.77045,294.27943 c 3.62891,1.19117 7.27491,2.3246 10.93456,3.3909 0.70651,0.20586 1.45654,0.49764 2.2528,0.87454 0.80463,0.37924 1.47839,0.89937 2.02403,1.56319 0.55409,0.66604 0.92345,1.41511 1.1065,2.24905 0.18301,0.83374 0.15417,1.71107 -0.0913,2.6309 -0.39827,1.49261 -1.21903,2.57141 -2.47774,3.22614 -1.2464,0.64727 -2.59953,0.9176 -4.04987,0.80671 0.82307,1.92203 1.6683,3.84204 2.53684,5.75922 0.035,0.085 0.07,0.17001 0.10513,0.25502 0.16626,0.38728 0.33251,0.68871 0.49787,0.9041 0.1679,0.20603 0.34753,0.36969 0.53862,0.49092 0.19104,0.12121 0.47281,0.23121 0.84507,0.32907 0.27241,0.0716 0.54494,0.14284 0.81759,0.21369 l -0.70758,2.72217 c -2.05041,-0.53267 -4.09351,-1.08703 -6.12882,-1.66177 -1.24767,-3.38573 -2.43151,-6.7753 -3.55669,-10.16531 -0.51048,-0.15474 -1.02053,-0.31072 -1.53013,-0.46791 l -1.19301,3.86843 c -0.20602,0.66803 -0.30196,1.10558 -0.28768,1.31332 0.0171,0.19834 0.0874,0.36737 0.21098,0.50698 0.13525,0.13298 0.4403,0.27264 0.91497,0.41714 0.28665,0.0873 0.57345,0.17415 0.86041,0.26064 l -0.80946,2.69218 c -3.0837,-0.93039 -6.14826,-1.90549 -9.191967,-2.92063 l 0.882515,-2.66446 c 0.274619,0.0914 0.549393,0.18247 0.824332,0.27322 0.43453,0.14341 0.75607,0.19756 0.96355,0.16337 0.21945,-0.0405 0.40494,-0.14331 0.55645,-0.30822 0.0803,-0.0963 0.21448,-0.43509 0.40283,-1.01652 l 3.51993,-10.86611 c 0.13749,-0.42445 0.20045,-0.73549 0.18899,-0.93276 8e-5,-0.20383 -0.0634,-0.35679 -0.19029,-0.459 -0.17162,-0.16765 -0.38933,-0.29432 -0.65335,-0.38031 -0.12073,-0.0342 -0.24146,-0.0686 -0.36217,-0.10292 -0.22136,-0.0724 -0.44266,-0.14494 -0.66389,-0.21773 l 0.90996,-2.7473 z m 5.54156,5.25851 -1.5492,5.0234 c 0.90134,0.27762 1.80395,0.55143 2.70778,0.82129 1.06511,0.31802 1.89239,0.44773 2.47615,0.39475 0.59572,-0.0598 1.08067,-0.24931 1.45464,-0.56675 0.38281,-0.31503 0.65309,-0.75323 0.8126,-1.31388 0.14619,-0.51386 0.14521,-0.98882 -0.001,-1.42457 -0.13531,-0.44272 -0.40568,-0.81817 -0.8109,-1.12744 -0.39708,-0.30715 -1.10602,-0.60862 -2.12891,-0.91236 -0.98814,-0.29343 -1.97509,-0.59163 -2.96078,-0.89444 z"
         style="font-style:normal;font-variant:normal;font-weight:600;font-stretch:normal;font-family:'Bookman Old Style';-inkscape-font-specification:'Bookman Old Style Semi-Bold';fill:#f8e111;fill-opacity:1;stroke:#1a1a1a;stroke-width:0.94914436;stroke-miterlimit:4;stroke-dasharray:none;stroke-opacity:1"
         id="path7625"
         inkscape:connector-curvature="0"
         inkscape:original-d="m 81.250928,284.36404 12.551767,0 q 1.211392,0 2.64171,0.21815 1.444912,0.21815 2.59792,0.95984 1.167605,0.7417 1.809785,1.87606 0.64218,1.13436 0.64218,2.55958 0,2.31236 -1.663828,3.75212 -1.649247,1.42523 -3.91148,1.86151 l 4.188778,4.8574 0.17514,0.21814 q 0.40867,0.49447 0.74435,0.7417 0.33569,0.23269 0.67137,0.33449 0.3357,0.10181 0.9341,0.10181 l 0.8757,0 0,2.80681 -6.523998,0 -6.538595,-8.74039 -1.693029,0 0,4.04297 q 0,1.0471 0.116761,1.33797 0.116761,0.27632 0.364877,0.42175 0.262711,0.13089 1.03625,0.13089 l 0.934085,0 0,2.80681 -9.953843,0 0,-2.80681 0.904895,0 q 0.715159,0 1.00706,-0.14544 0.306497,-0.15997 0.452448,-0.46537 0.07297,-0.17452 0.07297,-1.09073 l 0,-11.41634 q 0,-0.66898 -0.116761,-0.94529 -0.102166,-0.29087 -0.350282,-0.37812 -0.350282,-0.15998 -0.80273,-0.15998 l -0.408662,0.0145 -0.758943,0 0,-2.89408 z m 7.50187,3.33037 0,5.25005 3.021182,0 q 1.780599,0 2.656304,-0.31994 0.890299,-0.33449 1.328152,-0.94531 0.452447,-0.61081 0.452447,-1.48339 0,-0.79987 -0.423257,-1.36705 -0.408662,-0.58172 -1.182201,-0.85804 -0.758945,-0.27632 -2.495759,-0.27632 l -3.356868,0 z" />
      <path
         d="m 128.47655,300.65809 c 4.98313,1.52766 10.00095,2.91254 15.04857,4.12886 0.1504,2.29521 0.31648,4.59075 0.49855,6.88647 -0.88645,0.12754 -1.77535,0.25012 -2.66655,0.36781 -0.14146,-1.14089 -0.40236,-2.09726 -0.78243,-2.86895 -0.37134,-0.76973 -0.8574,-1.33905 -1.46096,-1.7098 -0.59238,-0.37825 -1.32061,-0.68085 -2.18686,-0.91164 -0.93186,-0.24827 -1.86248,-0.5019 -2.79185,-0.76075 -0.48895,1.66484 -0.98037,3.32912 -1.47425,4.99282 0.31159,0.0867 0.62335,0.17287 0.93527,0.25844 0.70377,0.19307 1.1928,0.26734 1.46348,0.22656 0.28275,-0.048 0.51028,-0.17314 0.68254,-0.3749 0.17507,-0.21145 0.36142,-0.66718 0.55925,-1.36771 0.0718,-0.25426 0.14352,-0.50853 0.21519,-0.76281 0.78585,0.20859 1.57264,0.4134 2.36035,0.61434 -0.7703,2.83751 -1.54804,5.67351 -2.33317,8.508 -0.81557,-0.2077 -1.6299,-0.41936 -2.44298,-0.63489 0.0826,-0.28754 0.16518,-0.57511 0.24766,-0.86268 0.1677,-0.58463 0.22159,-1.02963 0.16274,-1.33399 -0.0498,-0.30212 -0.17377,-0.53123 -0.37186,-0.6876 -0.19857,-0.15674 -0.68471,-0.3384 -1.46002,-0.55133 -0.28381,-0.0779 -0.56749,-0.15634 -0.85102,-0.23521 -0.45666,1.52927 -0.9154,3.05805 -1.37619,4.58634 -0.14692,0.48724 -0.21341,0.78949 -0.19913,0.90743 0.0143,0.11783 0.0771,0.22331 0.18875,0.3163 0.12068,0.0954 0.4024,0.20457 0.84475,0.32541 0.53928,0.14732 1.07914,0.29298 1.6196,0.43697 1.21025,0.32242 2.2854,0.40881 3.21694,0.26454 0.93455,-0.15395 1.83363,-0.55248 2.69228,-1.19438 0.87065,-0.64944 1.62189,-1.48888 2.25556,-2.51607 0.75651,0.50231 1.51727,1.00101 2.28239,1.49595 -1.46171,2.31385 -2.95478,4.61648 -4.47789,6.90763 -5.69419,-1.35135 -11.3226,-2.89432 -16.87981,-4.60024 0.30395,-0.91408 0.60721,-1.82835 0.90977,-2.74281 0.15972,0.049 0.3195,0.0978 0.47933,0.14656 0.63911,0.19488 1.08517,0.27639 1.33509,0.24726 0.25025,-0.0292 0.45932,-0.14906 0.62706,-0.35937 0.0916,-0.12891 0.24419,-0.52591 0.45746,-1.19116 1.15769,-3.61135 2.30429,-7.2256 3.43965,-10.84271 0.18523,-0.59 0.26682,-0.98753 0.24535,-1.19153 -0.0128,-0.20158 -0.0838,-0.3685 -0.21297,-0.50088 -0.12626,-0.14199 -0.4188,-0.28159 -0.87789,-0.4208 -0.26849,-0.0814 -0.53686,-0.16326 -0.80512,-0.2455 0.29521,-0.91646 0.5897,-1.83311 0.88349,-2.74995 0,0 -1.2e-4,-3e-5 -1.2e-4,-3e-5 z"
         style="font-style:normal;font-variant:normal;font-weight:600;font-stretch:normal;font-family:'Bookman Old Style';-inkscape-font-specification:'Bookman Old Style Semi-Bold';fill:#f8e111;fill-opacity:1;stroke:#1a1a1a;stroke-width:0.96970963;stroke-miterlimit:4;stroke-dasharray:none;stroke-opacity:1"
         id="path7627"
         inkscape:connector-curvature="0"
         inkscape:original-d="m 108.23403,283.94313 17.23746,0.90623 1.83505,6.69429 -2.75697,0.82753 q -0.55398,-1.64493 -1.39437,-2.67654 -0.82558,-1.03083 -1.9115,-1.40211 -1.06993,-0.38539 -2.536,-0.46246 l -3.15428,-0.16583 -0.40999,5.18489 1.03662,0.0545 q 1.1699,0.0615 1.5827,-0.0814 0.42876,-0.15699 0.63475,-0.50522 0.20717,-0.36314 0.29317,-1.45079 l 0.0624,-0.78964 2.63597,0.13858 -0.6951,8.79047 -2.63597,-0.13858 0.0707,-0.89393 q 0.0719,-0.90887 -0.11728,-1.33771 -0.17434,-0.42807 -0.53278,-0.59653 -0.35843,-0.16846 -1.63199,-0.23541 l -0.93296,-0.049 -0.377,4.76772 q -0.0601,0.75985 0.001,0.92763 0.0611,0.16778 0.26133,0.26809 0.21506,0.10109 0.92589,0.13846 l 1.73262,0.0911 q 1.93996,0.10199 3.31636,-0.3792 1.37755,-0.4961 2.51195,-1.67823 1.15039,-1.19625 1.84861,-2.88006 l 2.63578,1.08112 -3.32028,7.57526 -17.85942,-0.93893 0.22738,-2.87553 0.51831,0.0272 q 1.03662,0.0545 1.40381,-0.0758 0.36718,-0.1303 0.54474,-0.49499 0.0918,-0.21959 0.17429,-1.26252 l 0.89538,-11.32333 q 0.0731,-0.92373 -0.0378,-1.21382 -0.0961,-0.28932 -0.35204,-0.43742 -0.25478,-0.163 -1.03966,-0.20427 l -0.91813,-0.0483 0.22738,-2.87552 z" />
      <path
         d="m 156.22597,305.8487 c 1.41945,0.29878 2.84158,0.58263 4.26634,0.85098 0.78502,5.82771 1.68415,11.6506 2.70262,17.46625 0.16804,0.92963 0.36445,1.51661 0.58577,1.7607 0.23112,0.24545 0.70438,0.41842 1.41901,0.5135 -0.1811,0.98467 -0.36379,1.96915 -0.54805,2.95344 -3.35875,-0.49741 -6.69472,-1.0715 -10.00729,-1.71673 0.22815,-0.97585 0.45483,-1.95192 0.68003,-2.92821 0.19936,0.0335 0.39879,0.0667 0.59829,0.0997 0.54538,0.10462 0.94394,0.10513 1.19363,0.004 0.25212,-0.11132 0.40135,-0.27373 0.44822,-0.48658 0.0402,-0.18279 0.0284,-0.57462 -0.0337,-1.17738 -0.0601,-0.68122 -0.119,-1.36246 -0.17671,-2.04372 -2.07299,-0.3916 -4.13785,-0.8126 -6.19442,-1.2615 -0.42939,0.65533 -0.86179,1.30959 -1.29715,1.96278 -0.27225,0.41848 -0.42707,0.69714 -0.46348,0.83827 -0.0415,0.16096 -0.0253,0.31885 0.0489,0.47362 0.084,0.15694 0.2461,0.29396 0.48635,0.41052 0.15577,0.0765 0.6151,0.19934 1.37279,0.36091 -0.24238,0.97262 -0.48619,1.94501 -0.73142,2.91717 -2.69448,-0.57493 -5.37313,-1.19595 -8.03561,-1.86002 0.27765,-0.96439 0.55397,-1.92905 0.82896,-2.89396 0.5066,0.12634 0.89044,0.17219 1.14962,0.13931 0.25934,-0.0329 0.4872,-0.12197 0.68333,-0.26694 0.20579,-0.14255 0.46912,-0.43725 0.78801,-0.88421 3.60013,-5.00737 7.01872,-10.08594 10.2359,-15.23193 z m -3.27177,11.25229 c 1.33383,0.28446 2.67093,0.55685 4.01125,0.81676 -0.2198,-2.0713 -0.42708,-4.14288 -0.62202,-6.21466 -1.10642,1.80712 -2.23642,3.60647 -3.38923,5.3979 z"
         style="font-style:normal;font-variant:normal;font-weight:600;font-stretch:normal;font-family:'Bookman Old Style';-inkscape-font-specification:'Bookman Old Style Semi-Bold';fill:#f8e111;fill-opacity:1;stroke:#1a1a1a;stroke-width:1.01481628;stroke-miterlimit:4;stroke-dasharray:none;stroke-opacity:1"
         id="path7629"
         inkscape:connector-curvature="0"
         inkscape:original-d="m 139.64703,283.99832 4.85709,0.37668 4.55517,17.19388 q 0.37215,1.37361 0.73946,1.71482 0.38283,0.34243 1.4864,0.41238 l -0.34887,2.99081 -10.24177,-0.7943 0.34887,-2.9908 0.62252,0.0326 q 0.85348,0.0662 1.22018,-0.12428 0.36851,-0.20598 0.40647,-0.5314 0.0325,-0.27894 -0.16108,-1.1696 l -0.40666,-2.01738 -6.59509,-0.51148 -1.0618,2.12241 q -0.32963,0.67808 -0.35494,0.89503 -0.0289,0.24795 0.11829,0.46263 0.16271,0.2159 0.55533,0.34018 0.25657,0.0825 1.45144,0.17514 l -0.34887,2.9908 -8.37964,-0.64987 0.34887,-2.9908 q 0.80692,0.0626 1.19563,-0.048 0.3887,-0.11059 0.654,-0.37148 0.28082,-0.25967 0.66423,-0.99613 l 8.67477,-16.51184 z m -2.0248,11.58604 4.32949,0.33577 -1.41631,-6.11428 -2.91318,5.77851 z" />
      <path
         d="m 183.21609,307.5319 c 0.68246,-0.0179 1.36467,-0.04 2.04661,-0.0664 0.75559,2.69566 1.54269,5.38754 2.3619,8.07536 -0.92223,0.33871 -1.84931,0.66981 -2.78104,0.9934 -1.00309,-1.91472 -1.90122,-3.2716 -2.72661,-4.07208 -1.14641,-1.09827 -2.35568,-1.64592 -3.65903,-1.64911 -0.95067,-0.002 -1.84426,0.28094 -2.69234,0.85226 -0.83773,0.57115 -1.5227,1.41711 -2.05483,2.54169 -0.52185,1.12423 -0.81489,2.4512 -0.86472,3.97993 -0.076,2.33248 0.43622,4.35821 1.58669,6.07032 1.1593,1.70984 2.7416,2.58042 4.70789,2.58148 1.24913,6.7e-4 2.45047,-0.3741 3.58444,-1.12223 1.41832,-0.92746 2.61203,-2.17558 3.57564,-3.73548 0.79519,0.56729 1.59806,1.1298 2.40873,1.68739 0.0381,0.0262 0.0763,0.0523 0.11445,0.0785 -0.0341,0.0536 -0.0682,0.10686 -0.10219,0.15972 0,0 0,0 0,0 -1.43867,2.23179 -2.83531,3.79303 -4.12783,4.68634 -2.04523,1.41285 -4.39061,2.11988 -6.96975,2.0985 -2.14358,-0.0178 -4.07629,-0.577 -5.7622,-1.6581 -1.67603,-1.09238 -2.9612,-2.59633 -3.85904,-4.49368 -0.89825,-1.89821 -1.25811,-3.93859 -1.12187,-6.1157 0.13554,-2.16587 0.72804,-4.10773 1.73833,-5.83277 1.02132,-1.73621 2.32208,-3.06702 3.89899,-4.00888 1.58803,-0.94237 3.30536,-1.39985 5.18802,-1.38768 1.91151,0.0124 3.58467,0.44742 5.05456,1.32647 0.15265,-0.32952 0.30438,-0.65928 0.4552,-0.98928 z"
         style="font-style:normal;font-variant:normal;font-weight:600;font-stretch:normal;font-family:'Bookman Old Style';-inkscape-font-specification:'Bookman Old Style Semi-Bold';fill:#f8e111;fill-opacity:1;stroke:#1a1a1a;stroke-width:1.0629921;stroke-miterlimit:4;stroke-dasharray:none;stroke-opacity:1"
         id="path7631"
         inkscape:connector-curvature="0"
         inkscape:original-d="m 170.14339,284.32665 2.31696,0 2.23537,8.17461 -3.03488,0.88109 q -1.51745,-2.92066 -2.85541,-4.14441 -1.86009,-1.68061 -4.03019,-1.68061 -1.58271,0 -2.96962,0.8811 -1.3706,0.88109 -2.18643,2.59434 -0.79951,1.71324 -0.79951,4.01388 0,3.50806 1.84378,6.03713 1.86009,2.52907 4.86234,2.52907 1.90904,0 3.67123,-1.09321 2.20274,-1.35427 3.80177,-3.6386 l 2.52907,1.87641 q -2.46381,3.36122 -4.50338,4.68286 -3.1491,2.03958 -7.01613,2.03958 -3.21437,0 -5.82503,-1.53376 -2.59433,-1.55008 -4.14441,-4.3239 -1.55007,-2.77382 -1.55007,-6.05345 0,-3.26332 1.50112,-5.93924 1.51744,-2.69224 4.11178,-4.19336 2.61066,-1.50113 5.80871,-1.50113 3.247,0 5.69449,1.37059 l 0.53844,-0.97899 z" />
      <path
         d="m 189.49499,307.25178 c 3.26544,-0.20034 6.52499,-0.49668 9.77236,-0.88877 l 0.37761,3.1265 c -0.30611,0.037 -0.61233,0.0731 -0.91866,0.10839 -0.50577,0.0583 -0.84429,0.1553 -1.01659,0.29457 -0.17328,0.1283 -0.28758,0.30463 -0.34269,0.5293 -0.0562,0.21361 -0.0473,0.67256 0.0271,1.37549 l 0.41767,3.94304 c 2.56032,-0.2712 5.11461,-0.59877 7.66028,-0.98262 l -0.63503,-4.21107 c -0.0778,-0.51616 -0.15988,-0.86159 -0.2456,-1.03557 -0.11653,-0.24648 -0.27401,-0.40439 -0.4724,-0.47401 -0.1989,-0.0698 -0.61174,-0.0579 -1.24209,0.0306 -0.25686,0.0361 -0.5138,0.0715 -0.77082,0.10638 l -0.42348,-3.12059 c 3.25047,-0.4409 6.48711,-0.97806 9.7036,-1.61124 l 0.60855,3.08957 c -0.27357,0.0539 -0.54729,0.10705 -0.82114,0.15955 -0.55751,0.10687 -0.91745,0.22849 -1.08092,0.36947 -0.16518,0.13005 -0.26797,0.30362 -0.30819,0.52103 -0.0325,0.20469 0.0182,0.67688 0.15237,1.41509 l 2.20557,12.13619 c 0.13619,0.74939 0.27174,1.2273 0.40772,1.43493 0.14441,0.19477 0.32587,0.32187 0.54432,0.38098 0.22623,0.0463 0.71112,0.001 1.44898,-0.14147 0.21098,-0.0408 0.4219,-0.082 0.63275,-0.12353 l 0.60855,3.08958 c -3.66187,0.72164 -7.34442,1.33353 -11.0413,1.83541 l -0.42347,-3.12059 c 0.2395,-0.0325 0.47894,-0.0655 0.71832,-0.0989 0.66995,-0.0936 1.11464,-0.21422 1.33201,-0.356 0.2284,-0.14361 0.36944,-0.32426 0.42348,-0.54135 0.0647,-0.21894 0.04,-0.70431 -0.0736,-1.45746 l -0.71775,-4.75964 c -2.59752,0.39173 -5.20372,0.72599 -7.81598,1.0027 l 0.50704,4.78682 c 0.0802,0.75745 0.16179,1.22424 0.24532,1.40155 0.1352,0.25909 0.31966,0.41987 0.55323,0.48193 0.23295,0.0619 0.69268,0.0557 1.37504,-0.0239 0.25072,-0.0292 0.50139,-0.059 0.752,-0.0893 l 0.37761,3.12651 c -3.69274,0.44612 -7.39818,0.78283 -11.11003,1.00987 l -0.19255,-3.14325 c 0.24656,-0.0151 0.49308,-0.0307 0.73958,-0.0467 0.62136,-0.0405 1.05206,-0.12609 1.29007,-0.25222 0.23834,-0.12629 0.39272,-0.29058 0.46347,-0.49222 0.0815,-0.20265 0.0968,-0.63438 0.0467,-1.29622 l -0.93461,-12.33302 c -0.0583,-0.76987 -0.14058,-1.26599 -0.24575,-1.4869 -0.0963,-0.23276 -0.23641,-0.39684 -0.42019,-0.49251 -0.18402,-0.0958 -0.52921,-0.12512 -1.03729,-0.0912 -0.30281,0.0202 -0.60567,0.0396 -0.90859,0.0582 z"
         style="font-style:normal;font-variant:normal;font-weight:600;font-stretch:normal;font-family:'Bookman Old Style';-inkscape-font-specification:'Bookman Old Style Semi-Bold';fill:#f8e111;fill-opacity:1;stroke:#1a1a1a;stroke-width:1.0629921;stroke-miterlimit:4;stroke-dasharray:none;stroke-opacity:1"
         id="path7633"
         inkscape:connector-curvature="0"
         inkscape:original-d="m 177.25743,284.32665 11.11159,0 0,3.1491 -1.02794,0 q -0.84847,0 -1.15848,0.17948 -0.31002,0.16317 -0.44055,0.4895 -0.13053,0.31001 -0.13053,1.37059 l 0,3.96493 8.28882,0 0,-4.25863 q 0,-0.78319 -0.0979,-1.06057 -0.13053,-0.3916 -0.44054,-0.53845 -0.31002,-0.14685 -1.3706,-0.14685 l -0.86478,0 0,-3.1491 11.14423,0 0,3.1491 -0.93004,0 q -0.94636,0 -1.25638,0.16317 -0.31001,0.14684 -0.44055,0.45686 -0.11421,0.2937 -0.11421,1.41954 l 0,12.33534 q 0,1.14216 0.14685,1.48481 0.16316,0.32633 0.47318,0.47318 0.32633,0.13054 1.46849,0.13054 l 0.65266,0 0,3.1491 -11.14423,0 0,-3.1491 0.73425,0 q 1.02795,0 1.38691,-0.16317 0.37528,-0.16317 0.50582,-0.47318 0.14684,-0.31002 0.14684,-1.45218 l 0,-4.81339 -8.28882,0 0,4.81339 q 0,1.14216 0.0979,1.41955 0.16316,0.40791 0.50581,0.53844 0.34265,0.13054 1.38691,0.13054 l 0.76688,0 0,3.1491 -11.11159,0 0,-3.1491 0.75056,0 q 0.94636,0 1.32164,-0.16317 0.37528,-0.16317 0.50582,-0.45686 0.14685,-0.2937 0.14685,-1.28901 l 0,-12.36798 q 0,-1.15848 -0.14685,-1.50112 -0.13054,-0.35897 -0.42423,-0.52213 -0.2937,-0.16317 -1.14217,-0.16317 l -1.01162,0 0,-3.1491 z" />
      <path
         d="m 233.38076,298.06868 c 0.0603,-0.0211 0.12054,-0.0417 0.18067,-0.0619 2.92418,-0.97599 5.6394,-0.85618 8.26715,0.40626 2.68157,1.28029 4.75108,3.4648 6.09719,6.63588 0.90513,2.13223 1.26311,4.21202 1.02911,6.25334 -0.23376,2.03929 -1.00765,3.85355 -2.33442,5.42088 -1.25278,1.47349 -3.01461,2.65428 -5.26523,3.49582 -0.11907,0.0443 -0.23949,0.0877 -0.36126,0.13009 -3.20571,1.11621 -6.14953,1.06391 -8.71488,-0.099 -3.10988,-1.40631 -5.08865,-3.9608 -6.07881,-7.557 -0.92051,-3.34329 -0.64985,-6.36119 0.66794,-9.04623 1.33216,-2.69801 3.47678,-4.51594 6.51254,-5.57811 z m 1.25055,3.40002 c -1.4653,0.51312 -2.43047,1.51364 -2.91555,3.03249 -0.60534,1.90819 -0.5521,4.09938 0.217,6.55762 0.77024,2.46189 1.92015,4.23667 3.4992,5.3068 1.35627,0.9096 2.8451,1.09465 4.43089,0.5417 0.0994,-0.0346 0.19664,-0.0713 0.29181,-0.10996 0,0 0,0 0,0 1.43214,-0.58338 2.38281,-1.61572 2.83824,-3.07093 0.56853,-1.85378 0.3659,-3.97042 -0.55757,-6.36636 -0.64869,-1.68299 -1.42438,-3.01216 -2.30891,-3.98872 -0.87605,-0.98107 -1.79219,-1.61849 -2.74945,-1.91539 -0.91082,-0.2825 -1.77913,-0.29299 -2.61595,-0.0304 0,0 0,0 0,0 -0.0433,0.0136 -0.0865,0.028 -0.12971,0.0431 z"
         style="font-style:normal;font-variant:normal;font-weight:600;font-stretch:normal;font-family:'Bookman Old Style';-inkscape-font-specification:'Bookman Old Style Semi-Bold';fill:#f8e111;fill-opacity:1;stroke:#1a1a1a;stroke-width:1.0629921;stroke-miterlimit:4;stroke-dasharray:none;stroke-opacity:1"
         id="path7635"
         inkscape:connector-curvature="0"
         inkscape:original-d="m 228.2957,283.93505 q 5.41711,0 8.76201,3.29595 3.36122,3.29595 3.36122,8.46831 0,3.47543 -1.53376,6.16767 -1.53376,2.69224 -4.24231,4.16073 -2.69224,1.45218 -6.51032,1.45218 -5.04183,0 -8.2562,-2.77382 -3.88334,-3.3449 -3.88334,-8.94149 0,-5.205 3.39385,-8.51726 3.41016,-3.31227 8.90885,-3.31227 z m 0.0653,3.62228 q -2.59434,0 -4.1281,1.94168 -1.92535,2.44748 -1.92535,6.31452 0,3.86703 1.79482,6.11872 1.55008,1.92535 4.09546,1.92535 2.56171,0 4.09547,-1.92535 1.81114,-2.30064 1.81114,-6.15136 0,-2.70855 -0.7832,-4.55233 -0.76688,-1.84377 -2.08852,-2.7575 -1.32165,-0.91373 -2.87172,-0.91373 z" />
      <path
         d="m 244.92809,293.96542 c 3.00126,-1.30729 5.96873,-2.70447 8.89984,-4.18549 l 1.41837,2.81062 c -0.2935,0.14824 -0.58737,0.29567 -0.8816,0.44227 -0.40407,0.20132 -0.6679,0.39777 -0.79152,0.59187 -0.11471,0.18964 -0.16191,0.40641 -0.14136,0.65051 0.0158,0.2341 0.17358,0.65965 0.47359,1.27527 l 3.6298,7.44829 c 0.67689,1.38896 1.31191,2.3594 1.9135,2.91357 0.61022,0.54872 1.27729,0.86888 2.00093,0.95786 0.72792,0.0744 1.48541,-0.0875 2.26533,-0.48748 0.77994,-0.39993 1.37176,-0.95433 1.77134,-1.65708 0.39971,-0.70295 0.56585,-1.4153 0.50293,-2.13459 -0.0589,-0.73514 -0.45705,-1.77886 -1.1918,-3.13864 l -4.34358,-8.03852 c -0.18096,-0.33488 -0.34944,-0.55305 -0.50489,-0.65446 -0.20736,-0.13527 -0.41809,-0.19468 -0.63244,-0.1784 -0.15255,0.008 -0.47444,0.14375 -0.96963,0.40589 -0.23442,0.12409 -0.46909,0.24766 -0.704,0.37071 l -1.45995,-2.78969 c 2.46676,-1.29265 4.90692,-2.64433 7.31892,-4.05135 l 1.58589,2.72151 c -0.19129,0.11155 -0.38275,0.22276 -0.57439,0.33362 -0.57097,0.33032 -0.90359,0.56936 -0.99762,0.72342 -0.14064,0.2304 -0.19677,0.48108 -0.16804,0.75237 0.0116,0.18074 0.19937,0.59365 0.56321,1.23757 l 4.41534,7.81417 c 0.81392,1.44046 1.29572,2.75964 1.4357,3.96678 0.179,1.64531 -0.16022,3.19161 -1.03326,4.62769 -0.86788,1.42004 -2.19767,2.59723 -3.97647,3.49998 -1.25368,0.63625 -2.47893,1.00388 -3.66174,1.10542 -1.18795,0.0918 -2.32872,-0.0485 -3.41624,-0.41726 -1.08237,-0.38319 -1.95615,-0.91687 -2.62566,-1.59136 -0.66109,-0.68018 -1.34517,-1.81162 -2.06291,-3.3977 l -3.62389,-8.00821 c -0.33157,-0.73273 -0.58077,-1.18738 -0.74626,-1.36283 -0.17017,-0.18556 -0.35801,-0.29163 -0.56351,-0.31848 -0.20578,-0.0269 -0.54034,0.0639 -1.00629,0.26992 -0.28666,0.12673 -0.57363,0.25266 -0.86092,0.37779 z"
         style="font-style:normal;font-variant:normal;font-weight:600;font-stretch:normal;font-family:'Bookman Old Style';-inkscape-font-specification:'Bookman Old Style Semi-Bold';fill:#f8e111;fill-opacity:1;stroke:#1a1a1a;stroke-width:1.0629921;stroke-miterlimit:4;stroke-dasharray:none;stroke-opacity:1"
         id="path7637"
         inkscape:connector-curvature="0"
         inkscape:original-d="m 242.19743,284.32665 11.1116,0 0,3.1491 -1.09321,0 q -0.75057,0 -1.0769,0.17948 -0.31001,0.17948 -0.45686,0.52213 -0.14685,0.32633 -0.14685,1.35428 l 0,8.28883 q 0,2.31695 0.45686,3.45911 0.47318,1.14216 1.40323,1.74588 0.94636,0.58739 2.28432,0.58739 1.33796,0 2.38222,-0.65266 1.04427,-0.65266 1.48481,-1.64797 0.45687,-1.01163 0.45687,-3.32859 l 0,-9.13729 q 0,-0.57108 -0.14685,-0.81583 -0.1958,-0.32633 -0.52213,-0.45686 -0.22843,-0.0979 -1.15848,-0.0979 l -0.8811,0 0,-3.1491 9.41468,0 0,3.1491 -0.73425,0 q -1.09321,0 -1.35428,0.13053 -0.3916,0.1958 -0.57108,0.57108 -0.13053,0.24475 -0.13053,1.35428 l 0,8.97412 q 0,2.48012 -0.71793,4.16073 -0.99531,2.28432 -3.18174,3.55702 -2.1701,1.25638 -5.15604,1.25638 -2.10484,0 -3.76913,-0.63635 -1.66429,-0.65266 -2.92067,-1.84378 -1.24006,-1.20742 -1.74587,-2.54538 -0.4895,-1.33796 -0.4895,-3.94862 l 0,-8.79464 q 0,-1.20743 -0.13053,-1.55007 -0.13054,-0.35897 -0.42423,-0.52213 -0.2937,-0.16317 -1.14217,-0.16317 l -1.04426,0 0,-3.1491 z" />
      <path
         d="m 265.76441,282.27951 c 0.54477,-0.32979 1.08805,-0.66241 1.62983,-0.9978 0.19201,0.18191 0.38423,0.36364 0.57666,0.5452 3.24121,-2.01109 6.42822,-4.12088 9.55705,-6.32003 -0.0796,-0.25663 -0.15941,-0.51312 -0.23954,-0.76946 0.52635,-0.37087 1.05105,-0.74428 1.57409,-1.12018 2.2345,1.66994 4.49262,3.31608 6.77343,4.93815 -0.54308,0.84033 -1.09352,1.67859 -1.65138,2.5146 -1.28731,-0.71395 -2.14347,-1.15886 -2.60017,-1.33277 -0.8914,-0.34184 -1.7469,-0.50522 -2.56863,-0.49042 -0.62157,0.008 -1.13855,0.15309 -1.55412,0.43748 -0.19553,0.13381 -0.29337,0.27941 -0.29338,0.43742 -0.006,0.1489 0.11619,0.40804 0.36708,0.77691 l 7.36269,10.82494 c 0.43465,0.63904 0.72866,1.02426 0.88299,1.15639 0.15417,0.13201 0.31777,0.21148 0.49084,0.23827 0.16692,0.0178 0.35518,-0.0186 0.56445,-0.10946 0.2003,-0.0985 0.70771,-0.42571 1.50075,-0.97968 l 1.80316,2.5831 c -3.01436,2.10615 -6.08506,4.13956 -9.20955,6.09421 l -1.67142,-2.67054 c 0.18563,-0.11614 0.37107,-0.23257 0.55632,-0.34928 0.61409,-0.38687 0.98278,-0.67472 1.10638,-0.85678 0.1181,-0.19175 0.16012,-0.41266 0.12618,-0.66247 -0.0399,-0.25921 -0.2601,-0.69938 -0.66064,-1.32188 l -7.24314,-11.25692 c -0.20608,-0.32028 -0.36897,-0.50027 -0.48829,-0.53995 -0.11943,-0.0397 -0.2869,0.01 -0.50299,0.14787 -0.43229,0.27629 -0.80078,0.76133 -1.1118,1.45732 -0.31093,0.69579 -0.47599,1.50239 -0.49636,2.4219 -0.0106,0.37114 0.0759,1.30696 0.24219,2.85475 -0.9743,0.177 -1.94761,0.3459 -2.91974,0.50664 -0.60124,-2.73199 -1.23584,-5.45134 -1.90295,-8.15758 0,0 10e-6,5e-5 10e-6,5e-5 z"
         style="font-style:normal;font-variant:normal;font-weight:600;font-stretch:normal;font-family:'Bookman Old Style';-inkscape-font-specification:'Bookman Old Style Semi-Bold';fill:#f8e111;fill-opacity:1;stroke:#1a1a1a;stroke-width:1.0629921;stroke-miterlimit:4;stroke-dasharray:none;stroke-opacity:1"
         id="path7639"
         inkscape:connector-curvature="0"
         inkscape:original-d="m 269.18508,283.55977 2.15379,0 0.22844,0.76688 12.84115,0 0.27738,-0.76688 2.17011,0 2.82277,7.97881 -3.03489,1.06058 q -1.01163,-1.99063 -1.45217,-2.59434 -0.86478,-1.19111 -1.99063,-1.87641 -0.84846,-0.52213 -1.68061,-0.52213 -0.39159,0 -0.53844,0.1958 -0.14685,0.17948 -0.14685,0.84846 l 0,13.08591 q 0,1.15847 0.0816,1.45217 0.0816,0.2937 0.27738,0.47318 0.1958,0.16317 0.53845,0.22844 0.34265,0.0489 1.82746,0.0489 l 0,3.1491 -11.09528,0 0,-3.1491 0.66898,0 q 1.10953,0 1.41954,-0.13054 0.31002,-0.14685 0.47318,-0.48949 0.16317,-0.35897 0.16317,-1.4685 l 0,-13.3796 q 0,-0.57108 -0.13053,-0.71793 -0.13054,-0.14685 -0.55477,-0.14685 -0.84846,0 -1.89272,0.63635 -1.04426,0.63635 -1.86009,1.79482 -0.32634,0.45687 -1.38691,2.56171 l -2.98594,-1.06058 2.80645,-7.97881 z" />
    </g>
  </g>
</svg>
