<?xml version="1.0" encoding="UTF-8" standalone="no"?>
<!-- Created with Inkscape (http://www.inkscape.org/) -->

<svg
   xmlns:dc="http://purl.org/dc/elements/1.1/"
   xmlns:cc="http://creativecommons.org/ns#"
   xmlns:rdf="http://www.w3.org/1999/02/22-rdf-syntax-ns#"
   xmlns:svg="http://www.w3.org/2000/svg"
   xmlns="http://www.w3.org/2000/svg"
   xmlns:xlink="http://www.w3.org/1999/xlink"
   xmlns:sodipodi="http://sodipodi.sourceforge.net/DTD/sodipodi-0.dtd"
   xmlns:inkscape="http://www.inkscape.org/namespaces/inkscape"
   width="312.1879"
   height="233.86519"
   viewBox="0 0 312.1879 233.86519"
   id="svg2"
   version="1.1"
   inkscape:version="0.91 r13725"
   sodipodi:docname="house_of_praise.svg"
   inkscape:export-filename="/home/joshua/Pictures/HOP/house_of_praise2.png"
   inkscape:export-xdpi="99.901497"
   inkscape:export-ydpi="99.901497">
  <defs
     id="defs4">
    <linearGradient
       inkscape:collect="always"
       id="linearGradient5988">
      <stop
         style="stop-color:#570000;stop-opacity:1;"
         offset="0"
         id="stop5990" />
      <stop
         style="stop-color:#570000;stop-opacity:0;"
         offset="1"
         id="stop5992" />
    </linearGradient>
    <linearGradient
       inkscape:collect="always"
       xlink:href="#linearGradient5988"
       id="linearGradient6200"
       x1="286.96964"
       y1="314.21799"
       x2="311.22824"
       y2="422.30432"
       gradientUnits="userSpaceOnUse" />
  </defs>
  <sodipodi:namedview
     id="base"
     pagecolor="#ffffff"
     bordercolor="#666666"
     borderopacity="1.0"
     inkscape:pageopacity="1"
     inkscape:pageshadow="2"
     inkscape:zoom="1.4"
     inkscape:cx="121.59238"
     inkscape:cy="146.26291"
     inkscape:document-units="px"
     inkscape:current-layer="layer6"
     showgrid="false"
     inkscape:window-width="1317"
     inkscape:window-height="750"
     inkscape:window-x="49"
     inkscape:window-y="18"
     inkscape:window-maximized="1"
     units="px"
     fit-margin-top="0"
     fit-margin-left="0"
     fit-margin-right="0"
     fit-margin-bottom="0" />
  <metadata
     id="metadata7">
    <rdf:RDF>
      <cc:Work
         rdf:about="">
        <dc:format>image/svg+xml</dc:format>
        <dc:type
           rdf:resource="http://purl.org/dc/dcmitype/StillImage" />
        <dc:title></dc:title>
      </cc:Work>
    </rdf:RDF>
  </metadata>
  <g
     inkscape:groupmode="layer"
     id="layer6"
     inkscape:label="Background"
     transform="translate(0,-0.55201614)"
     style="display:none">
    <rect
       style="fill:#f3f9f3;fill-opacity:1;fill-rule:evenodd;stroke:none;stroke-width:1;stroke-miterlimit:4;stroke-dasharray:none;stroke-opacity:1"
       id="rect6250"
       width="312.1879"
       height="233.86519"
       x="0"
       y="0.55201614" />
  </g>
  <g
     inkscape:label="House"
     inkscape:groupmode="layer"
     id="layer1"
     transform="translate(0,-0.55201614)">
    <path
       style="fill:#800000;fill-opacity:1;fill-rule:evenodd;stroke:none;stroke-width:1px;stroke-linecap:butt;stroke-linejoin:miter;stroke-opacity:1"
       d="M 273.15706,110.02665 174.12368,49.140867 53.07869,103.67421 262.4913,109.04623 25.05438,109.59773 175.13383,39.039337 276.72849,105.74094"
       id="path4136"
       inkscape:connector-curvature="0"
       sodipodi:nodetypes="ccccccc" />
  </g>
  <g
     inkscape:groupmode="layer"
     id="layer2"
     inkscape:label="Notes"
     transform="translate(0,-0.55201614)">
    <path
       style="color:#000000;font-style:normal;font-variant:normal;font-weight:normal;font-stretch:normal;font-size:medium;line-height:normal;font-family:sans-serif;text-indent:0;text-align:start;text-decoration:none;text-decoration-line:none;text-decoration-style:solid;text-decoration-color:#000000;letter-spacing:normal;word-spacing:normal;text-transform:none;direction:ltr;block-progression:tb;writing-mode:lr-tb;baseline-shift:baseline;text-anchor:start;white-space:normal;clip-rule:nonzero;display:inline;overflow:visible;visibility:visible;opacity:1;isolation:auto;mix-blend-mode:normal;color-interpolation:sRGB;color-interpolation-filters:linearRGB;solid-color:#000000;solid-opacity:1;fill:#800000;fill-opacity:1;fill-rule:evenodd;stroke:none;stroke-width:8;stroke-linecap:butt;stroke-linejoin:miter;stroke-miterlimit:4;stroke-dasharray:none;stroke-dashoffset:0;stroke-opacity:1;color-rendering:auto;image-rendering:auto;shape-rendering:auto;text-rendering:auto;enable-background:accumulate"
       d="m 116.64168,24.682137 -8.93898,-1.12942 c 0,0 4.34151,31.75018 6.6464,46.83979 0.006,0.042 0.0103,0.0781 0.0167,0.12002 -3.80246,0.85652 -7.34221,2.52712 -10.23705,4.87588 -4.57471,3.71177 -7.85436,9.05817 -7.5739,15.03771 0.22754,4.85156 2.24909,10.890403 6.3822,15.408013 2.06656,2.2588 4.97905,4.19934 8.54845,4.23476 3.56942,0.0354 7.05432,-1.90887 10.05736,-5.28162 3.40743,-3.82694 3.24158,-8.681103 3.03228,-14.697773 -0.20928,-6.01668 -1.77057,-12.21769 -2.43106,-20.41175 -2.15024,-7.22337 -5.50236,-44.99561 -5.50236,-44.99561 z m -1.18832,53.77868 c 1.04189,6.73893 2.919,16.27307 0.11503,21.007333 -2.26208,2.75643 -4.72851,3.11295 -6.72835,0.96588 -2.25869,-2.468793 -4.18426,-8.049573 -4.29368,-10.382403 -0.12667,-2.70098 1.54159,-5.94961 4.62291,-8.44969 1.78498,-1.44826 3.98164,-2.51309 6.28409,-3.14112 z"
       id="path4139"
       inkscape:connector-curvature="0"
       sodipodi:nodetypes="ccccsssssscccccssc" />
    <path
       style="color:#000000;font-style:normal;font-variant:normal;font-weight:normal;font-stretch:normal;font-size:medium;line-height:normal;font-family:sans-serif;text-indent:0;text-align:start;text-decoration:none;text-decoration-line:none;text-decoration-style:solid;text-decoration-color:#000000;letter-spacing:normal;word-spacing:normal;text-transform:none;direction:ltr;block-progression:tb;writing-mode:lr-tb;baseline-shift:baseline;text-anchor:start;white-space:normal;clip-rule:nonzero;display:inline;overflow:visible;visibility:visible;opacity:1;isolation:auto;mix-blend-mode:normal;color-interpolation:sRGB;color-interpolation-filters:linearRGB;solid-color:#000000;solid-opacity:1;fill:#800000;fill-opacity:1;fill-rule:evenodd;stroke:none;stroke-width:1;stroke-linecap:butt;stroke-linejoin:miter;stroke-miterlimit:4;stroke-dasharray:none;stroke-dashoffset:0;stroke-opacity:1;color-rendering:auto;image-rendering:auto;shape-rendering:auto;text-rendering:auto;enable-background:accumulate"
       d="m 139.70946,108.2631 8.91203,1.32538 c 0,0 -3.64347,-31.837823 -5.61656,-46.974403 -0.006,-0.0421 -0.009,-0.0783 -0.0141,-0.12036 3.82035,-0.77284 7.39592,-2.36533 10.34162,-4.64998 4.65509,-3.61045 8.05131,-8.88357 7.90218,-14.86783 -0.12098,-4.85539 -2.00947,-10.93715 -6.04242,-15.5444 -2.01648,-2.30363 -4.88566,-4.30763 -8.45344,-4.4214 -3.56777,-0.11377 -7.09451,1.75355 -10.17086,5.05957 -3.49063,3.75122 -3.43138,8.60786 -3.35421,14.62767 0.0772,6.01982 1.50195,12.25361 1.9824,20.4602 1.99116,7.26882 4.51329,45.105543 4.51329,45.105543 z m 2.36859,-53.739623 c -0.89371,-6.76018 -2.56108,-16.33324 0.34615,-21.00481 2.32204,-2.70611 4.79571,-3.0084 6.74793,-0.81794 2.20395,2.51778 4.00654,8.13949 4.06472,10.47416 0.0674,2.70311 -1.67186,5.91433 -4.80727,8.34617 -1.81635,1.40873 -4.03586,2.42508 -6.35153,3.00242 z"
       id="path4139-2"
       inkscape:connector-curvature="0"
       sodipodi:nodetypes="ccccsssssscccccssc" />
  </g>
  <g
     inkscape:groupmode="layer"
     id="layer3"
     inkscape:label="Cross"
     transform="translate(0,-0.55201614)">
    <g
       id="g4527"
       style="fill:#800000"
       transform="translate(-170.69548,-226.41404)">
      <path
         sodipodi:nodetypes="ccccc"
         inkscape:connector-curvature="0"
         id="rect4178"
         d="m 343.05874,290.70718 6.78342,-1.51522 1.16556,43.68909 -10.10152,-0.50508 z"
         style="fill:#800000;fill-opacity:1;stroke:none;stroke-width:8;stroke-miterlimit:4;stroke-dasharray:none;stroke-opacity:1" />
      <path
         sodipodi:nodetypes="ccccc"
         inkscape:connector-curvature="0"
         id="rect4180"
         d="m 327.75389,302.82901 38.63833,0 -1.26269,9.09137 -38.89087,-2.43915 z"
         style="fill:#800000;fill-opacity:1;stroke:none;stroke-width:8;stroke-miterlimit:4;stroke-dasharray:none;stroke-opacity:1" />
    </g>
  </g>
  <g
     inkscape:groupmode="layer"
     id="layer4"
     inkscape:label="Text"
     transform="translate(0,-0.55201614)">
    <text
       xml:space="preserve"
       style="font-style:normal;font-weight:normal;font-size:40px;line-height:125%;font-family:sans-serif;letter-spacing:0px;word-spacing:0px;fill:#744018;fill-opacity:1;fill-rule:evenodd;stroke:none;stroke-width:1px;stroke-linecap:butt;stroke-linejoin:miter;stroke-opacity:1"
       x="69.512222"
       y="144.37036"
       id="text4481"
       sodipodi:linespacing="125%"><tspan
         sodipodi:role="line"
         x="69.512222"
         y="144.37036"
         style="font-style:normal;font-variant:normal;font-weight:bold;font-stretch:normal;font-family:'Century Schoolbook L';-inkscape-font-specification:'Century Schoolbook L Bold';fill:#744018;fill-opacity:1;fill-rule:evenodd"
         id="tspan4485">House </tspan></text>
    <text
       xml:space="preserve"
       style="font-style:normal;font-weight:normal;font-size:40px;line-height:125%;font-family:sans-serif;letter-spacing:0px;word-spacing:0px;fill:#744018;fill-opacity:1;stroke:none;stroke-width:1px;stroke-linecap:butt;stroke-linejoin:miter;stroke-opacity:1"
       x="212.79793"
       y="144.37033"
       id="text4489"
       sodipodi:linespacing="125%"><tspan
         sodipodi:role="line"
         id="tspan4491"
         x="212.79793"
         y="144.37033"
         style="font-style:normal;font-variant:normal;font-weight:bold;font-stretch:normal;font-family:'Century Schoolbook L';-inkscape-font-specification:'Century Schoolbook L Bold';fill:#744018;fill-opacity:1">of</tspan></text>
    <text
       xml:space="preserve"
       style="font-style:normal;font-weight:normal;font-size:40.85741425px;line-height:125%;font-family:sans-serif;letter-spacing:0px;word-spacing:0px;fill:#7c4a09;fill-opacity:1;stroke:none;stroke-width:1px;stroke-linecap:butt;stroke-linejoin:miter;stroke-opacity:1"
       x="65.540176"
       y="187.88467"
       id="text4493"
       sodipodi:linespacing="125%"
       transform="scale(1.0214353,0.97901452)"><tspan
         sodipodi:role="line"
         id="tspan4495"
         x="65.540176"
         y="187.88467"
         style="font-style:normal;font-variant:normal;font-weight:bold;font-stretch:normal;font-size:44.09673309px;font-family:'DejaVu Serif';-inkscape-font-specification:'DejaVu Serif Bold';letter-spacing:0px;fill:#7c4a09;fill-opacity:1">PRA SE</tspan></text>
    <g
       id="g6238"
       transform="translate(67.19544,-327.93437)">
      <ellipse
         ry="7.0500236"
         rx="5.2275395"
         cy="480.34225"
         cx="112.50574"
         id="path6234"
         style="fill:#7c4a09;fill-opacity:1;fill-rule:evenodd;stroke:none;stroke-width:1;stroke-miterlimit:4;stroke-dasharray:none;stroke-opacity:1" />
      <g
         id="g6246">
        <path
           style="fill:#7c4a09;fill-opacity:1;fill-rule:evenodd;stroke:none;stroke-width:1px;stroke-linecap:butt;stroke-linejoin:miter;stroke-opacity:1"
           d="m 102.27795,477.08033 c 9.3284,28.1172 7.6628,42.84175 7.6628,42.84175 6.69605,-4.69195 6.98817,-28.96019 13.5504,-40.31637 l -11.81878,15.78363 z"
           id="path6236"
           inkscape:connector-curvature="0"
           sodipodi:nodetypes="ccccc" />
      </g>
    </g>
  </g>
  <g
     inkscape:groupmode="layer"
     id="layer5"
     inkscape:label="Walls"
     transform="translate(0,-0.55201614)">
    <path
       style="fill:#800000;fill-opacity:1;fill-rule:evenodd;stroke:none;stroke-width:1px;stroke-linecap:butt;stroke-linejoin:miter;stroke-opacity:1"
       d="m 52.48732,108.76016 c 1.31752,53.09092 -0.83372,73.22858 -2.02031,102.53049 72.05467,-8.67944 145.68299,-16.64359 232.33509,-18.68783 l 4.04061,-4.54568 c -104.6759,2.02412 -168.70524,7.6347 -228.29448,13.63706 1.43118,-17.08515 1.42669,-43.29317 1.51523,-93.94419 z"
       id="path4542"
       inkscape:connector-curvature="0"
       sodipodi:nodetypes="ccccccc" />
  </g>
</svg>
